<?xml version="1.0" standalone="no"?>
<!DOCTYPE svg PUBLIC "-//W3C//DTD SVG 1.1//EN" "http://www.w3.org/Graphics/SVG/1.1/DTD/svg11.dtd" >
<svg xmlns="http://www.w3.org/2000/svg">
<metadata>Generated by IcoMoon</metadata>
<defs>
<font id="nm-font" horiz-adv-x="1024">
<font-face units-per-em="1024" ascent="960" descent="-64" />
<missing-glyph horiz-adv-x="1024" />
<glyph unicode="&#x20;" horiz-adv-x="512" d="" />
<glyph unicode="&#xe000;" glyph-name="eye" d="M512 810.667q69.667 0 135.5-21.167t115.5-55 93.5-74.833 73.667-82 51.667-74.833 32.167-54.833l10-21.333q-2.333-5-6.333-13.5t-18.833-34.667-31.667-51.667-44.333-60-56.833-64.333-69.5-60.167-82.333-51.5-94.833-34.667-107.333-13.5q-69.667 0-135.5 21.167t-115.5 54.833-93.5 74.333-73.667 81.5-51.667 74.5-32.167 55l-10 21q2.333 5 6.333 13.5t18.833 34.833 31.667 51.833 44.333 60.333 56.833 64.667 69.5 60.333 82.333 51.833 94.833 34.833 107.333 13.5zM512 725.334q-46.667 0-91.667-12.333t-81.167-31.833-70.667-47.167-59.667-54.5-48.833-57.667-37.667-52.833-26.333-44q12.333-21.667 26.333-43.5t37.667-52.333 48.833-57 59.667-53.833 70.667-46.667 81.167-31.5 91.667-12.167 91.667 12.333 81.167 31.667 70.667 46.833 59.667 54.167 48.833 57.333 37.667 52.667 26.333 43.667q-12.333 21.667-26.333 43.667t-37.667 52.667-48.833 57.333-59.667 54.167-70.667 46.833-81.167 31.667-91.667 12.333zM512 597.334q70.667 0 120.667-50t50-120.667-50-120.667-120.667-50-120.667 50-50 120.667 50 120.667 120.667 50zM512 512q-35.333 0-60.333-25t-25-60.333 25-60.333 60.333-25 60.333 25 25 60.333-25 60.333-60.333 25z" />
<glyph unicode="&#xe036;" glyph-name="search-alt" d="M426.667 896q78 0 149.167-30.5t122.5-81.833 81.833-122.5 30.5-149.167q0-67-21.833-128.333t-62.167-111.333l242.333-242q12.333-12.333 12.333-30.333 0-18.333-12.167-30.5t-30.5-12.167q-18 0-30.333 12.333l-242 242.333q-50-40.333-111.333-62.167t-128.333-21.833q-78 0-149.167 30.5t-122.5 81.833-81.833 122.5-30.5 149.167 30.5 149.167 81.833 122.5 122.5 81.833 149.167 30.5zM426.667 810.667q-60.667 0-116-23.667t-95.333-63.667-63.667-95.333-23.667-116 23.667-116 63.667-95.333 95.333-63.667 116-23.667 116 23.667 95.333 63.667 63.667 95.333 23.667 116-23.667 116-63.667 95.333-95.333 63.667-116 23.667z" />
<glyph unicode="&#xe042;" glyph-name="replay" d="M512 724.667c188 0 342-152 342-340s-154-342-342-342-342 154-342 342h86c0-142 114-256 256-256s256 114 256 256-114 256-256 256v-172l-214 214 214 214v-172z" />
<glyph unicode="&#xe052;" glyph-name="play" d="M170.667 42.667v768l640-384zM644.667 426.667l-388.667 233.333v-466.667z" />
<glyph unicode="&#xe074;" glyph-name="head" d="M512 938.667q69.667 0 128.5-34.333t93.167-93.167 34.333-128.5v-128q0-53.333-20.667-101t-57.667-83q97.333-15.333 173-45.167t118.5-70.5 42.833-85.667v-84q0-53-37.5-90.5t-90.5-37.5h-768q-53 0-90.5 37.5t-37.5 90.5v84.333q0 45 42.833 85.667t118.333 70.5 172.833 44.833q-36.667 35.667-57.333 83.167t-20.667 100.833v128q0 69.667 34.333 128.5t93.167 93.167 128.5 34.333zM512 298.667q-92.667 0-178.833-14.833t-150.167-41.5q-25.667-10.667-45.833-22.667t-30.667-21.667-15.833-16.833-5.333-11.5v-84.333q0-17.667 12.5-30.167t30.167-12.5h768q17.667 0 30.167 12.5t12.5 30.167v84q0 4.333-5.333 11.5t-15.833 16.833-30.667 21.667-45.833 23q-64 26.667-150.167 41.5t-178.833 14.833zM512 853.334q-70.667 0-120.667-50t-50-120.667v-128q0-70.667 50-120.667t120.667-50 120.667 50 50 120.667v128q0 70.667-50 120.667t-120.667 50z" />
<glyph unicode="&#xe076;" glyph-name="speech-bubble" d="M170.667 896h682.667q53 0 90.5-37.5t37.5-90.5v-469.333q0-53-37.5-90.5t-90.5-37.5h-341.333l-298.667-213.333v213.333h-42.667q-53 0-90.5 37.5t-37.5 90.5v469.333q0 53 37.5 90.5t90.5 37.5zM853.333 810.667h-682.667q-17.667 0-30.167-12.5t-12.5-30.167v-469.333q0-17.667 12.5-30.167t30.167-12.5h128v-133l186 133h368.667q17.667 0 30.167 12.5t12.5 30.167v469.333q0 17.667-12.5 30.167t-30.167 12.5z" />
<glyph unicode="&#xe094;" glyph-name="arrow-left" d="M426.667 768q17.667 0 30.167-12.5t12.5-30.167q0-18-12.667-30.333l-225.667-225.667h665q17.667 0 30.167-12.5t12.5-30.167-12.5-30.167-30.167-12.5h-665l225.667-225.667q12.667-12.333 12.667-30.333 0-17.667-12.5-30.167t-30.167-12.5q-18 0-30.333 12.333l-298.667 298.667q-12.333 13-12.333 30.333t12.333 30.333l298.667 298.667q12.667 12.333 30.333 12.333z" />
<glyph unicode="&#xe095;" glyph-name="arrow-right" d="M597.333 768q18 0 30.333-12.333l298.667-298.667q12.333-12.333 12.333-30.333t-12.333-30.333l-298.667-298.667q-12.333-12.333-30.333-12.333-18.333 0-30.5 12.167t-12.167 30.5q0 18 12.333 30.333l226 225.667h-665q-17.667 0-30.167 12.5t-12.5 30.167 12.5 30.167 30.167 12.5h665l-226 225.667q-12.333 12.333-12.333 30.333 0 18.333 12.167 30.5t30.5 12.167z" />
<glyph unicode="&#xe096;" glyph-name="arrow-up" d="M512 853.334q18 0 30.333-12.333l298.667-298.667q12.333-12.333 12.333-30.333 0-18.333-12.167-30.5t-30.5-12.167q-18 0-30.333 12.333l-225.667 226v-665q0-17.667-12.5-30.167t-30.167-12.5-30.167 12.5-12.5 30.167v665l-225.667-226q-12.333-12.333-30.333-12.333-18.333 0-30.5 12.167t-12.167 30.5q0 18 12.333 30.333l298.667 298.667q12.333 12.333 30.333 12.333z" />
<glyph unicode="&#xe097;" glyph-name="arrow-down" d="M512 853.334q17.667 0 30.167-12.5t12.5-30.167v-665l225.667 226q12.333 12.333 30.333 12.333 18.333 0 30.5-12.167t12.167-30.5q0-18-12.333-30.333l-298.667-298.667q-12.333-12.333-30.333-12.333t-30.333 12.333l-298.667 298.667q-12.333 12.333-12.333 30.333 0 18.333 12.167 30.5t30.5 12.167q18 0 30.333-12.333l225.667-226v665q0 17.667 12.5 30.167t30.167 12.5z" />
<glyph unicode="&#xe107;" glyph-name="ban" d="M512 896q95.667 0 182.5-37.167t149.667-100 100-149.667 37.167-182.5-37.167-182.5-100-149.667-149.667-100-182.5-37.167-182.5 37.167-149.667 100-100 149.667-37.167 182.5 37.167 182.5 100 149.667 149.667 100 182.5 37.167zM751.667 126.667l-539.667 539.667q-40-50.333-62-111.667t-22-128q0-78 30.5-149.167t81.833-122.5 122.5-81.833 149.167-30.5q67 0 128.333 21.833t111.333 62.167zM512 810.667q-67 0-128.333-21.833t-111.333-62.167l539.667-539.667q40.333 50 62.167 111.333t21.833 128.333q0 78-30.5 149.167t-81.833 122.5-122.5 81.833-149.167 30.5z" />
<glyph unicode="&#xe112;" glyph-name="maximize" d="M597.333 384.334q17.667 0 30.333-12.667l268.333-268.333v195.667q0 17.667 12.5 30.167t30.167 12.5 30.167-12.5 12.5-30.167v-298.667q0-17.667-12.667-30.333t-30.333-12.667h-298.667q-17.667 0-30.167 12.5t-12.5 30.167 12.5 30.167 30.167 12.5h195.667l-268.333 268.333q-12.333 13-12.333 30.333 0 17.667 12.5 30.333t30.167 12.667zM85.333 896h298.667q17.667 0 30.167-12.5t12.5-30.167-12.5-30.167-30.167-12.5h-195.667l268.333-268q12.667-12.667 12.667-30.333t-12.667-30.167-30.333-12.5q-17 0-30.333 12.333l-268 268.333v-195.667q0-17.667-12.5-30.167t-30.167-12.5-30.167 12.5-12.5 30.167v298.667q0 17.667 12.5 30.167t30.167 12.5z" />
<glyph unicode="&#xe113;" glyph-name="minimize" d="M85.333 896q18 0 30.333-12.333l268.333-268.333v195.667q0 17.667 12.5 30.167t30.167 12.5 30.167-12.5 12.5-30.167v-298.667q0-17.667-12.667-30.333t-30.333-12.667h-298.667q-17.667 0-30.167 12.5t-12.5 30.167 12.5 30.167 30.167 12.5h195.667l-268.333 268.333q-12.333 12.333-12.333 30.333 0 18.333 12.167 30.5t30.5 12.167zM597.667 384h298.667q17.667 0 30.167-12.5t12.5-30.167-12.5-30.167-30.167-12.5h-195.667l268-268.333q12.667-12.667 12.667-30.333t-12.5-30.167-30.167-12.5q-18 0-30.333 12.333l-268.333 268.333v-195.667q0-17.667-12.5-30.167t-30.167-12.5-30.167 12.5-12.5 30.167v298.667q0 17.667 12.667 30.333t30.333 12.667z" />
<glyph unicode="&#xe114;" glyph-name="plus" d="M512 853.334q17.667 0 30.167-12.5t12.5-30.167v-341.333h341.333q17.667 0 30.167-12.5t12.5-30.167-12.5-30.167-30.167-12.5h-341.333v-341.333q0-17.667-12.5-30.167t-30.167-12.5-30.167 12.5-12.5 30.167v341.333h-341.333q-17.667 0-30.167 12.5t-12.5 30.167 12.5 30.167 30.167 12.5h341.333v341.333q0 17.667 12.5 30.167t30.167 12.5z" />
<glyph unicode="&#xe115;" glyph-name="minus" d="M128 469.334h768q17.667 0 30.167-12.5t12.5-30.167-12.5-30.167-30.167-12.5h-768q-17.667 0-30.167 12.5t-12.5 30.167 12.5 30.167 30.167 12.5z" />
<glyph unicode="&#xe116;" glyph-name="check-alt" d="M896 725.334q18.333 0 30.5-12.167t12.167-30.5q0-18-12.333-30.333l-512-512q-12.333-12.333-30.333-12.333t-30.333 12.333l-256 256q-12.333 12.333-12.333 30.333 0 18.333 12.167 30.5t30.5 12.167q18 0 30.333-12.333l225.667-226 481.667 482q12.333 12.333 30.333 12.333z" />
<glyph unicode="&#xe117;" glyph-name="close2" d="M810.667 768q18.333 0 30.5-12.167t12.167-30.5q0-18-12.333-30.333l-268.667-268.333 268.667-268.333q12.333-12.333 12.333-30.333 0-18.333-12.167-30.5t-30.5-12.167q-18 0-30.333 12.333l-268.333 268.667-268.333-268.667q-12.333-12.333-30.333-12.333-18.333 0-30.5 12.167t-12.167 30.5q0 18 12.333 30.333l268.667 268.333-268.667 268.333q-12.333 12.333-12.333 30.333 0 18.333 12.167 30.5t30.5 12.167q18 0 30.333-12.333l268.333-268.667 268.333 268.667q12.333 12.333 30.333 12.333z" />
<glyph unicode="&#xe122;" glyph-name="inbox" d="M512 896q17.667 0 30.167-12.5t12.5-30.167v-494.333l140.333 140.667q12.333 12.333 30.333 12.333 18.333 0 30.5-12.167t12.167-30.5q0-18-12.333-30.333l-213.333-213.333q-12.333-12.333-30.333-12.333t-30.333 12.333l-213.333 213.333q-12.333 13-12.333 30.333 0 17.667 12.5 30.167t30.167 12.5q18 0 30.333-12.333l140.333-140.667v494.333q0 17.667 12.5 30.167t30.167 12.5zM938.667 298.667q17.667 0 30.167-12.5t12.5-30.167v-170.667q0-53.333-37-90.333-37.667-37.667-90-37.667h-683.667q-52.333 0-90.667 37.333-37.333 38.333-37.333 90.667v170.667q0 17.667 12.5 30.167t30.167 12.5 30.167-12.5 12.5-30.167v-170.667q0-17.667 12.5-30.167t30.167-12.5h683.667q17.333 0 29.5 12.5t12.167 30.167v170.667q0 17.667 12.5 30.167t30.167 12.5z" />
<glyph unicode="&#xe159;" glyph-name="markunread" d="M854 596.667v86l-342-214-342 214v-86l342-212zM854 768.667c46 0 84-40 84-86v-512c0-46-38-86-84-86h-684c-46 0-84 40-84 86v512c0 46 38 86 84 86h684z" />
<glyph unicode="&#xe5d5;" glyph-name="refresh" d="M754 668.667l100 100v-300h-300l138 138c-46 46-110 76-180 76-142 0-256-114-256-256s114-256 256-256c112 0 208 70 242 170h88c-38-148-170-256-330-256-188 0-340 154-340 342s152 342 340 342c94 0 180-38 242-100z" />
<glyph unicode="&#xe600;" glyph-name="angle-thin-left" horiz-adv-x="819" d="M253.747 561.738l289.038 289.038c3.129 3.129 7.234 4.694 11.338 4.694s8.208-1.565 11.338-4.694c6.259-6.259 6.259-16.409 0-22.667l-277.709-277.709 277.709-277.709c6.259-6.259 6.259-16.409 0-22.667s-16.409-6.259-22.667 0l-289.047 289.038c-6.259 6.267-6.259 16.409 0 22.675z" />
<glyph unicode="&#xe601;" glyph-name="angle-thin-right" horiz-adv-x="819" d="M565.453 539.062l-289.038-289.038c-3.129-3.129-7.234-4.694-11.338-4.694s-8.208 1.565-11.338 4.694c-6.259 6.259-6.259 16.409 0 22.667l277.709 277.709-277.709 277.709c-6.259 6.259-6.259 16.409 0 22.667s16.409 6.259 22.667 0l289.038-289.047c6.267-6.259 6.267-16.4 0.008-22.667z" />
<glyph unicode="&#xe602;" glyph-name="messenger" d="M853.333 853.334h-682.667c-47.147 0-85.333-38.187-85.333-85.333v-768l170.667 170.667h597.333c47.147 0 85.333 38.187 85.333 85.333v512c0 47.147-38.187 85.333-85.333 85.333z" />
<glyph unicode="&#xe603;" glyph-name="done" d="M384 248.747l-177.92 177.92-60.373-60.373 238.293-238.293 512 512-60.373 60.373z" />
<glyph unicode="&#xe604;" glyph-name="textsms" d="M853.333 853.334h-682.667c-47.147 0-84.907-38.187-84.907-85.333l-0.427-768 170.667 170.667h597.333c47.147 0 85.333 38.187 85.333 85.333v512c0 47.147-38.187 85.333-85.333 85.333zM384 469.334h-85.333v85.333h85.333v-85.333zM554.667 469.334h-85.333v85.333h85.333v-85.333zM725.333 469.334h-85.333v85.333h85.333v-85.333z" />
<glyph unicode="&#xe605;" glyph-name="star" d="M512 201.814l263.68-159.147-69.76 299.947 232.747 201.6-306.773 26.453-119.893 282.667-119.893-282.667-306.773-26.453 232.747-201.6-69.76-299.947z" />
<glyph unicode="&#xe606;" glyph-name="star-small" d="M512 328.534l158.293-115.2-60.587 186.027 158.293 112.64h-194.133l-61.867 192-61.867-192h-194.133l158.293-112.64-60.373-186.027z" />
<glyph unicode="&#xe607;" glyph-name="thumb-down" d="M640 810.667h-384c-35.413 0-65.707-21.547-78.507-52.053l-128.64-300.8c-3.84-9.813-6.187-20.267-6.187-31.147v-81.707l0.427-0.427-0.427-3.2c0-47.147 38.187-85.333 85.333-85.333h269.44l-40.747-194.987c-0.853-4.267-1.493-8.747-1.493-13.44 0-17.707 7.253-33.707 18.773-45.227l45.44-45.013 280.96 280.96c15.36 15.573 24.96 36.907 24.96 60.373v426.667c0 47.147-38.187 85.333-85.333 85.333zM810.667 810.667v-512h170.667v512h-170.667z" />
<glyph unicode="&#xe608;" glyph-name="thumb-up" d="M42.667 42.667h170.667v512h-170.667v-512zM981.333 512c0 47.147-38.187 85.333-85.333 85.333h-269.44l40.747 194.987c0.853 4.267 1.493 8.747 1.493 13.44 0 17.707-7.253 33.707-18.773 45.227l-45.44 45.013-280.96-280.96c-15.36-15.573-24.96-36.907-24.96-60.373v-426.667c0-47.147 38.187-85.333 85.333-85.333h384c35.413 0 65.707 21.547 78.507 52.053l128.64 300.8c3.84 9.813 6.187 20.267 6.187 31.147v81.707l-0.427 0.427 0.427 3.2z" />
<glyph unicode="&#xe609;" glyph-name="plus-small" d="M810.667 384h-256v-256h-85.333v256h-256v85.333h256v256h85.333v-256h256v-85.333z" />
<glyph unicode="&#xe60b;" glyph-name="arrow-back" d="M853.333 469.334h-519.253l238.293 238.293-60.373 60.373-341.333-341.333 341.333-341.333 60.373 60.373-238.293 238.293h519.253v85.333z" />
<glyph unicode="&#xe60c;" glyph-name="chevron-left" d="M657.707 622.294l-60.373 60.373-256-256 256-256 60.373 60.373-195.627 195.627z" />
<glyph unicode="&#xe60d;" glyph-name="chevron-right" d="M426.667 682.667l-60.373-60.373 195.627-195.627-195.627-195.627 60.373-60.373 256 256z" />
<glyph unicode="&#xe60e;" glyph-name="arrow-forward" d="M512 768l-60.373-60.373 238.293-238.293h-519.253v-85.333h519.253l-238.293-238.293 60.373-60.373 341.333 341.333z" />
<glyph unicode="&#xe60f;" glyph-name="check" d="M384 248.747l-177.92 177.92-60.373-60.373 238.293-238.293 512 512-60.373 60.373z" />
<glyph unicode="&#xe610;" glyph-name="close" d="M810.667 664.96l-60.373 60.373-238.293-238.293-238.293 238.293-60.373-60.373 238.293-238.293-238.293-238.293 60.373-60.373 238.293 238.293 238.293-238.293 60.373 60.373-238.293 238.293z" />
<glyph unicode="&#xe611;" glyph-name="chevron-up" d="M512 597.334l-256-256 60.373-60.373 195.627 195.627 195.627-195.627 60.373 60.373z" />
<glyph unicode="&#xe612;" glyph-name="chevron-down" d="M707.627 572.374l-195.627-195.627-195.627 195.627-60.373-60.373 256-256 256 256z" />
<glyph unicode="&#xe613;" glyph-name="arrow-drop-down" d="M298.667 512l213.333-213.333 213.333 213.333z" />
<glyph unicode="&#xe614;" glyph-name="arrow-drop-up" d="M298.667 341.334l213.333 213.333 213.333-213.333z" />
<glyph unicode="&#xe615;" glyph-name="media-play" d="M128 832v-768l768 384-768 384z" />
<glyph unicode="&#xe616;" glyph-name="remove" d="M810.667 384h-597.333v85.333h597.333v-85.333z" />
<glyph unicode="&#xe617;" glyph-name="more-horiz" d="M256 512c-47.147 0-85.333-38.187-85.333-85.333s38.187-85.333 85.333-85.333 85.333 38.187 85.333 85.333-38.187 85.333-85.333 85.333zM768 512c-47.147 0-85.333-38.187-85.333-85.333s38.187-85.333 85.333-85.333 85.333 38.187 85.333 85.333-38.187 85.333-85.333 85.333zM512 512c-47.147 0-85.333-38.187-85.333-85.333s38.187-85.333 85.333-85.333 85.333 38.187 85.333 85.333-38.187 85.333-85.333 85.333z" />
<glyph unicode="&#xe619;" glyph-name="more-vert" d="M512 597.334c47.147 0 85.333 38.187 85.333 85.333s-38.187 85.333-85.333 85.333-85.333-38.187-85.333-85.333 38.187-85.333 85.333-85.333zM512 512c-47.147 0-85.333-38.187-85.333-85.333s38.187-85.333 85.333-85.333 85.333 38.187 85.333 85.333-38.187 85.333-85.333 85.333zM512 256c-47.147 0-85.333-38.187-85.333-85.333s38.187-85.333 85.333-85.333 85.333 38.187 85.333 85.333-38.187 85.333-85.333 85.333z" />
<glyph unicode="&#xe61a;" glyph-name="get-app" d="M810.667 554.667h-170.667v256h-256v-256h-170.667l298.667-298.667 298.667 298.667zM213.333 170.667v-85.333h597.333v85.333h-597.333z" />
<glyph unicode="&#xe61b;" glyph-name="vertical-align-bottom" d="M682.667 384h-128v426.667h-85.333v-426.667h-128l170.667-170.667 170.667 170.667zM170.667 128v-85.333h682.667v85.333h-682.667z" />
<glyph unicode="&#xe61c;" glyph-name="cloud-download" d="M825.813 510.507c-29.013 146.773-158.507 257.493-313.813 257.493-123.307 0-230.187-69.973-283.733-172.16-128.213-13.867-228.267-122.453-228.267-254.507 0-141.44 114.56-256 256-256h554.667c117.76 0 213.333 95.573 213.333 213.333 0 112.64-87.68 203.947-198.187 211.84zM725.333 384l-213.333-213.333-213.333 213.333h128v170.667h170.667v-170.667h128z" />
<glyph unicode="&#xe61d;" glyph-name="visibility" d="M512 746.667c-213.333 0-395.52-132.693-469.333-320 73.813-187.307 256-320 469.333-320 213.547 0 395.52 132.693 469.333 320-73.813 187.307-255.787 320-469.333 320zM512 213.334c-117.76 0-213.333 95.573-213.333 213.333s95.573 213.333 213.333 213.333 213.333-95.573 213.333-213.333-95.573-213.333-213.333-213.333zM512 554.667c-70.613 0-128-57.387-128-128s57.387-128 128-128 128 57.387 128 128-57.387 128-128 128z" />
<glyph unicode="&#xe61f;" glyph-name="lens" d="M512 853.334c-235.733 0-426.667-190.933-426.667-426.667s190.933-426.667 426.667-426.667 426.667 190.933 426.667 426.667-190.933 426.667-426.667 426.667z" />
<glyph unicode="&#xe620;" glyph-name="filter-hdr" d="M597.333 682.667l-160-213.333 121.6-162.133-68.267-51.2c-72.107 96-192 256-192 256l-256-341.333h938.667l-384 512z" />
<glyph unicode="&#xe621;" glyph-name="cloud" d="M825.813 510.507c-29.013 146.773-158.507 257.493-313.813 257.493-123.307 0-230.187-69.973-283.733-172.16-128.213-13.867-228.267-122.453-228.267-254.507 0-141.44 114.56-256 256-256h554.667c117.76 0 213.333 95.573 213.333 213.333 0 112.64-87.68 203.947-198.187 211.84z" />
<glyph unicode="&#xe622;" glyph-name="cloud-done" d="M825.813 510.507c-29.013 146.773-158.507 257.493-313.813 257.493-123.307 0-230.187-69.973-283.733-172.16-128.213-13.867-228.267-122.453-228.267-254.507 0-141.44 114.56-256 256-256h554.667c117.76 0 213.333 95.573 213.333 213.333 0 112.64-87.68 203.947-198.187 211.84zM426.667 213.334l-149.333 149.333 60.373 60.373 88.96-88.96 220.8 220.8 60.373-60.373-281.173-281.173z" />
<glyph unicode="&#xe623;" glyph-name="cloud-off" d="M825.813 510.507c-29.013 146.773-158.507 257.493-313.813 257.493-62.933 0-121.6-18.56-171.093-49.92l62.293-62.293c32.64 16.853 69.547 26.88 108.8 26.88 129.707 0 234.667-104.96 234.667-234.667v-21.333h64c70.613 0 128-57.387 128-128 0-48.427-27.093-90.027-66.773-111.787l61.867-61.867c54.4 38.613 90.24 101.76 90.24 173.653 0 112.64-87.68 203.947-198.187 211.84zM128 713.6l117.333-116.907c-136.107-5.76-245.333-117.76-245.333-255.36 0-141.44 114.56-256 256-256h500.267l85.333-85.333 54.4 54.187-713.6 713.813-54.4-54.4zM329.6 512l341.333-341.333h-414.933c-94.293 0-170.667 76.373-170.667 170.667s76.373 170.667 170.667 170.667h73.6z" />
<glyph unicode="&#xe624;" glyph-name="cloud-queue" d="M825.813 510.507c-29.013 146.773-158.507 257.493-313.813 257.493-123.307 0-230.187-69.973-283.733-172.16-128.213-13.867-228.267-122.453-228.267-254.507 0-141.44 114.56-256 256-256h554.667c117.76 0 213.333 95.573 213.333 213.333 0 112.64-87.68 203.947-198.187 211.84zM810.667 170.667h-554.667c-94.293 0-170.667 76.373-170.667 170.667s76.373 170.667 170.667 170.667h30.293c27.947 98.347 118.187 170.667 225.707 170.667 129.707 0 234.667-104.96 234.667-234.667v-21.333h64c70.613 0 128-57.387 128-128s-57.387-128-128-128z" />
<glyph unicode="&#xe625;" glyph-name="cloud-upload" d="M825.813 510.507c-29.013 146.773-158.507 257.493-313.813 257.493-123.307 0-230.187-69.973-283.733-172.16-128.213-13.867-228.267-122.453-228.267-254.507 0-141.44 114.56-256 256-256h554.667c117.76 0 213.333 95.573 213.333 213.333 0 112.64-87.68 203.947-198.187 211.84zM597.333 384v-170.667h-170.667v170.667h-128l213.333 213.333 213.333-213.333h-128z" />
<glyph unicode="&#xe8cc;" glyph-name="cart-filled" d="M726 170.667c46 0 84-40 84-86s-38-84-84-84-86 38-86 84 40 86 86 86zM42 852.667h140l40-84h632c24 0 42-20 42-44 0-8-2-14-6-20l-152-276c-14-26-42-44-74-44h-318l-38-70-2-6c0-6 4-10 10-10h494v-86h-512c-46 0-84 40-84 86 0 14 4 28 10 40l58 106-154 324h-86v84zM298 170.667c46 0 86-40 86-86s-40-84-86-84-84 38-84 84 38 86 84 86z" />
<glyph unicode="&#xe900;" glyph-name="telegram" d="M679.429 204l84 396c7.429 34.857-12.571 48.571-35.429 40l-493.714-190.286c-33.714-13.143-33.143-32-5.714-40.571l126.286-39.429 293.143 184.571c13.714 9.143 26.286 4 16-5.143l-237.143-214.286-9.143-130.286c13.143 0 18.857 5.714 25.714 12.571l61.714 59.429 128-94.286c23.429-13.143 40-6.286 46.286 21.714zM1024 438.857c0-282.857-229.143-512-512-512s-512 229.143-512 512 229.143 512 512 512 512-229.143 512-512z" />
<glyph unicode="&#xe901;" glyph-name="line-app" horiz-adv-x="896" d="M544.2 551.6v-142.2c0-3.6-2.8-6.4-6.4-6.4h-22.8c-2.2 0-4.2 1.2-5.2 2.6l-65.2 88v-84.4c0-3.6-2.8-6.4-6.4-6.4h-22.8c-3.6 0-6.4 2.8-6.4 6.4v142.2c0 3.6 2.8 6.4 6.4 6.4h22.6c2 0 4.2-1 5.2-2.8l65.2-88v84.4c0 3.6 2.8 6.4 6.4 6.4h22.8c3.6 0.2 6.6-2.8 6.6-6.2zM380.2 558h-22.8c-3.6 0-6.4-2.8-6.4-6.4v-142.2c0-3.6 2.8-6.4 6.4-6.4h22.8c3.6 0 6.4 2.8 6.4 6.4v142.2c0 3.4-2.8 6.4-6.4 6.4zM325.2 438.8h-62.2v112.8c0 3.6-2.8 6.4-6.4 6.4h-22.8c-3.6 0-6.4-2.8-6.4-6.4v-142.2c0-1.8 0.6-3.2 1.8-4.4 1.2-1 2.6-1.8 4.4-1.8h91.4c3.6 0 6.4 2.8 6.4 6.4v22.8c0 3.4-2.8 6.4-6.2 6.4zM664.2 558h-91.4c-3.4 0-6.4-2.8-6.4-6.4v-142.2c0-3.4 2.8-6.4 6.4-6.4h91.4c3.6 0 6.4 2.8 6.4 6.4v22.8c0 3.6-2.8 6.4-6.4 6.4h-62.2v24h62.2c3.6 0 6.4 2.8 6.4 6.4v23c0 3.6-2.8 6.4-6.4 6.4h-62.2v24h62.2c3.6 0 6.4 2.8 6.4 6.4v22.8c-0.2 3.4-3 6.4-6.4 6.4zM896 732.6v-570.6c-0.2-89.6-73.6-162.2-163.4-162h-570.6c-89.6 0.2-162.2 73.8-162 163.4v570.6c0.2 89.6 73.8 162.2 163.4 162h570.6c89.6-0.2 162.2-73.6 162-163.4zM772.8 487.4c0 146-146.4 264.8-326.2 264.8s-326.2-118.8-326.2-264.8c0-130.8 116-240.4 272.8-261.2 38.2-8.2 33.8-22.2 25.2-73.6-1.4-8.2-6.6-32.2 28.2-17.6s187.8 110.6 256.4 189.4c47.2 52 69.8 104.6 69.8 163z" />
<glyph unicode="&#xe902;" glyph-name="heart-outline" d="M917.333 772.267v0c-51.2 51.2-119.467 81.067-192 81.067v0c-72.533 0-145.067-29.867-196.267-81.067 0 0 0 0 0 0l-17.067-17.067-17.067 17.067c-51.2 51.2-119.467 81.067-196.267 81.067-72.533 0-140.8-29.867-192-81.067s-85.333-123.733-85.333-196.267 29.867-145.067 81.067-196.267l375.467-375.467c8.533-8.533 17.067-12.8 29.867-12.8s21.333 4.267 29.867 12.8l375.467 375.467c115.2 106.667 115.2 285.867 4.267 392.533zM857.6 439.467l-345.6-345.6-345.6 345.6c-76.8 76.8-76.8 196.267 0 273.067 34.133 38.4 85.333 55.467 132.267 55.467 51.2 0 98.133-17.067 136.533-55.467l46.933-46.933c17.067-17.067 42.667-17.067 59.733 0l42.667 46.933c0 0 0 0 0 0 38.4 34.133 85.333 55.467 140.8 55.467 0 0 0 0 0 0 51.2 0 98.133-21.333 136.533-55.467v0c34.133-38.4 55.467-85.333 55.467-136.533s-21.333-98.133-59.733-136.533z" />
<glyph unicode="&#xe903;" glyph-name="search" d="M925.867 72.534l-157.867 157.867c51.2 64 85.333 149.333 85.333 238.933 0 213.333-170.667 384-384 384s-384-170.667-384-384c0-213.333 170.667-384 384-384 89.6 0 174.933 29.867 238.933 85.333l157.867-157.867c8.533-8.533 21.333-12.8 29.867-12.8s21.333 4.267 29.867 12.8c17.067 17.067 17.067 42.667 0 59.733zM170.667 469.334c0 166.4 132.267 298.667 298.667 298.667s298.667-132.267 298.667-298.667c0-81.067-34.133-157.867-85.333-209.067 0 0 0 0 0 0s0 0 0 0c-55.467-55.467-128-85.333-209.067-85.333-170.667-4.267-302.933 128-302.933 294.4z" />
<glyph unicode="&#xe904;" glyph-name="cart" d="M469.333 42.667c0-47.128-38.205-85.333-85.333-85.333s-85.333 38.205-85.333 85.333c0 47.128 38.205 85.333 85.333 85.333s85.333-38.205 85.333-85.333zM938.667 42.667c0-47.128-38.205-85.333-85.333-85.333s-85.333 38.205-85.333 85.333c0 47.128 38.205 85.333 85.333 85.333s85.333-38.205 85.333-85.333zM1015.467 708.267c-8.533 12.8-21.333 17.067-34.133 17.067h-691.2l-34.133 179.2c-4.267 21.333-21.333 34.133-42.667 34.133h-170.667c-25.6 0-42.667-17.067-42.667-42.667s17.067-42.667 42.667-42.667h136.533l34.133-179.2c0 0 0-4.267 0-4.267l72.533-354.133c12.8-59.733 64-102.4 123.733-102.4 0 0 0 0 4.267 0h413.867c64 0 115.2 42.667 128 102.4l68.267 358.4c0 12.8 0 25.6-8.533 34.133zM870.4 332.8c-4.267-21.333-21.333-34.133-42.667-34.133h-413.867c-21.333 0-38.4 12.8-42.667 34.133l-64 307.2h622.933l-59.733-307.2z" />
<glyph unicode="&#xe905;" glyph-name="single-user" d="M682.667 341.334h-341.333c-119.467 0-213.333-93.867-213.333-213.333v-85.333c0-25.6 17.067-42.667 42.667-42.667s42.667 17.067 42.667 42.667v85.333c0 72.533 55.467 128 128 128h341.333c72.533 0 128-55.467 128-128v-85.333c0-25.6 17.067-42.667 42.667-42.667s42.667 17.067 42.667 42.667v85.333c0 119.467-93.867 213.333-213.333 213.333zM512 426.667c119.467 0 213.333 93.867 213.333 213.333s-93.867 213.333-213.333 213.333-213.333-93.867-213.333-213.333 93.867-213.333 213.333-213.333zM512 768c72.533 0 128-55.467 128-128s-55.467-128-128-128-128 55.467-128 128 55.467 128 128 128z" />
<glyph unicode="&#xe906;" glyph-name="menu" d="M896 469.334h-768c-25.6 0-42.667-17.067-42.667-42.667s17.067-42.667 42.667-42.667h768c25.6 0 42.667 17.067 42.667 42.667s-17.067 42.667-42.667 42.667zM128 640h768c25.6 0 42.667 17.067 42.667 42.667s-17.067 42.667-42.667 42.667h-768c-25.6 0-42.667-17.067-42.667-42.667s17.067-42.667 42.667-42.667zM896 213.334h-768c-25.6 0-42.667-17.067-42.667-42.667s17.067-42.667 42.667-42.667h768c25.6 0 42.667 17.067 42.667 42.667s-17.067 42.667-42.667 42.667z" />
<glyph unicode="&#xe907;" glyph-name="mixcloud" horiz-adv-x="1317" d="M940 323.428c0 45.714-29.143 84.571-69.143 100-2.857-17.714-7.429-35.429-13.143-52.571-5.714-18.286-22.857-29.714-41.143-29.714-4.571 0-9.143 0.571-13.714 1.714-23.429 8-35.429 32.571-28 55.429 8.571 26.286 13.143 53.714 13.143 81.714 0 142.857-116.571 259.429-260 259.429-102.857 0-195.429-61.143-236.571-152.571 40-10.286 77.143-30.857 107.429-60.571 17.143-17.143 17.143-45.143 0-62.286s-45.143-17.143-62.286 0c-27.429 27.429-64 42.857-102.857 42.857-80.571 0-146.286-65.143-146.286-145.714s65.714-145.714 146.286-145.714h597.714c60 0 108.571 48.571 108.571 108zM1027.429 323.428c0-108-88-195.429-196-195.429h-597.714c-129.143 0-233.714 104.571-233.714 233.143 0 117.143 86.857 213.714 199.429 230.286 47.429 139.429 179.429 235.429 328.571 235.429 180 0 328.571-137.714 345.714-313.143 87.429-18.857 153.714-97.143 153.714-190.286zM1170.286 323.428c0-65.143-18.857-128-55.429-182.286-8.571-12.571-22.286-18.857-36.571-18.857v0c-8.571 0-17.143 2.286-24.571 7.429-20 13.143-25.143 40.571-11.429 60.571 26.857 39.429 40.571 85.143 40.571 133.143 0 47.429-13.714 93.714-40.571 133.143-13.714 20-8.571 46.857 11.429 60.571s47.429 8 61.143-12c36.571-53.714 55.429-116.571 55.429-181.714zM1316.571 323.428c0-90.857-26.286-178.286-76.571-253.143-8.571-12.571-22.286-19.429-36.571-19.429v0c-8 0-16.571 2.286-24 7.429-20 13.714-25.714 40.571-12 60.571 40 60.571 61.714 131.429 61.714 204.571s-21.714 144-61.714 204c-13.714 20-8 47.429 12 60.571 20 13.714 46.857 8.571 60.571-12 50.286-74.286 76.571-161.714 76.571-252.571z" />
<glyph unicode="&#xe908;" glyph-name="odnoklassniki" horiz-adv-x="731" d="M365.714 432.571c-142.857 0-259.429 116-259.429 258.857 0 143.429 116.571 259.429 259.429 259.429s259.429-116 259.429-259.429c0-142.857-116.571-258.857-259.429-258.857zM365.714 819.428c-70.286 0-127.429-57.143-127.429-128 0-70.286 57.143-127.429 127.429-127.429s127.429 57.143 127.429 127.429c0 70.857-57.143 128-127.429 128zM664.571 401.143c25.143-51.429-3.429-76-68.571-118.286-54.857-34.857-130.286-48.571-180-53.714l41.714-41.143 152.571-152.571c22.857-23.429 22.857-61.143 0-84l-6.857-7.429c-23.429-22.857-61.143-22.857-84.571 0-38.286 38.857-94.286 94.857-152.571 153.143l-152.571-153.143c-23.429-22.857-61.143-22.857-84 0l-6.857 7.429c-23.429 22.857-23.429 60.571 0 84 38.857 38.857 94.286 94.857 152.571 152.571l41.143 41.143c-49.143 5.143-125.714 18.286-181.143 53.714-65.143 42.286-93.714 66.857-68.571 118.286 14.857 29.143 55.429 53.714 109.143 11.429 0 0 72.571-57.714 189.714-57.714s189.714 57.714 189.714 57.714c53.714 42.286 94.286 17.714 109.143-11.429z" />
<glyph unicode="&#xe909;" glyph-name="spotify" horiz-adv-x="878" d="M644 259.428c0 16-6.286 22.286-17.143 29.143-73.714 44-159.429 65.714-255.429 65.714-56 0-109.714-7.429-164-19.429-13.143-2.857-24-11.429-24-29.714 0-14.286 10.857-28 28-28 5.143 0 14.286 2.857 21.143 4.571 44.571 9.143 91.429 15.429 138.857 15.429 84 0 163.429-20.571 226.857-58.857 6.857-4 11.429-6.286 18.857-6.286 14.286 0 26.857 11.429 26.857 27.429zM698.857 382.286c0 15.429-5.714 26.286-20 34.857-87.429 52-198.286 80.571-313.143 80.571-73.714 0-124-10.286-173.143-24-18.286-5.143-27.429-17.714-27.429-36.571s15.429-34.286 34.286-34.286c8 0 12.571 2.286 21.143 4.571 40 10.857 88 18.857 143.429 18.857 108.571 0 207.429-28.571 278.857-70.857 6.286-3.429 12.571-7.429 21.714-7.429 19.429 0 34.286 15.429 34.286 34.286zM760.571 524c0 21.143-9.143 32-22.857 40-98.857 57.714-234.286 84.571-363.429 84.571-76 0-145.714-8.571-208-26.857-16-4.571-30.857-18.286-30.857-42.286 0-23.429 17.714-41.714 41.143-41.714 8.571 0 16.571 2.857 22.857 4.571 55.429 15.429 115.429 21.143 175.429 21.143 118.857 0 242.286-26.286 321.714-73.714 8-4.571 13.714-6.857 22.857-6.857 21.714 0 41.143 17.143 41.143 41.143zM877.714 438.857c0-242.286-196.571-438.857-438.857-438.857s-438.857 196.571-438.857 438.857 196.571 438.857 438.857 438.857 438.857-196.571 438.857-438.857z" />
<glyph unicode="&#xe90a;" glyph-name="location" d="M512 448.667q44 0 75 31t31 75-31 75-75 31-75-31-31-75 31-75 75-31zM512 852.667q124 0 211-87t87-211q0-62-31-142t-75-150-87-131-73-97l-32-34q-12 14-32 37t-72 92-91 134-71 147-32 144q0 124 87 211t211 87z" />
<glyph unicode="&#xe90b;" glyph-name="users" d="M554.667 341.334h-341.333c-119.467 0-213.333-93.867-213.333-213.333v-85.333c0-25.6 17.067-42.667 42.667-42.667s42.667 17.067 42.667 42.667v85.333c0 72.533 55.467 128 128 128h341.333c72.533 0 128-55.467 128-128v-85.333c0-25.6 17.067-42.667 42.667-42.667s42.667 17.067 42.667 42.667v85.333c0 119.467-93.867 213.333-213.333 213.333zM384 426.667c119.467 0 213.333 93.867 213.333 213.333s-93.867 213.333-213.333 213.333-213.333-93.867-213.333-213.333 93.867-213.333 213.333-213.333zM384 768c72.533 0 128-55.467 128-128s-55.467-128-128-128-128 55.467-128 128 55.467 128 128 128zM861.867 332.8c-21.333 4.267-46.933-8.533-51.2-29.867s8.533-46.933 29.867-51.2c55.467-12.8 93.867-64 93.867-123.733v-85.333c0-25.6 17.067-42.667 42.667-42.667s42.667 17.067 42.667 42.667v85.333c4.267 98.133-59.733 183.467-157.867 204.8zM691.2 844.8c-21.333 8.533-42.667-4.267-51.2-29.867-4.267-21.333 8.533-46.933 29.867-51.2 68.267-17.067 110.933-85.333 93.867-157.867-12.8-46.933-46.933-81.067-93.867-93.867-21.333-4.267-38.4-29.867-29.867-51.2 4.267-21.333 21.333-34.133 42.667-34.133 4.267 0 8.533 0 8.533 0 76.8 21.333 136.533 76.8 153.6 153.6 29.867 119.467-38.4 238.933-153.6 264.533z" />
<glyph unicode="&#xe90c;" glyph-name="ebay" horiz-adv-x="1280" d="M1212 581l-109.6-219.8-109.8 219.8h-75l21.8-41.2c-23 38-71.8 52-126.6 52-63.6 0-135.8-17.4-143-86.2h67.4c2.8 27.6 31.4 43.6 70 43.6 52 0 82-19.2 82-66v-6.8c-25.4 0-56-0.2-83.4-0.8-84.8-1.8-139.2-20-153.4-68.8 2 10.4 3 21.2 3 32.4 0 104.2-79.4 152.4-150.8 152.4-42.6 0-86-11-117.4-48.4v161.2h-64.2v-339c0-20.6-1.2-45.8-2.2-66.2h63c1.4 12.6 2.2 25.8 2.2 39 27.2-33.2 70.8-49.8 117.4-49.8 73.8 0 129.8 43.8 146.6 108.4-1-5.6-1.4-11.6-1.4-18 0-48.2 42.2-90 121.2-90 53.2 0 91.6 11.4 123.8 51 0-13.2 0.6-26.6 2.2-40.4h59.6c-1.4 16.4-2 35-2 53.6v131.2c0 18.6-3.4 34.4-9.6 47.6l123-232.2-57-108.2h71.8l198.4 389.6zM487.4 332.4c-59.2 0-100.4 43-100.4 107.6 0 64.8 41.2 107.6 100.4 107.6 59.6 0 100.4-42.8 100.4-107.6 0-64.6-40.8-107.6-100.4-107.6zM889.2 427c0-60-35.8-96.8-103.2-96.8-50.2 0-70 26.8-70 51.6 0 38.2 36.2 48.8 94.4 50.6 26.2 1 55.2 1.2 78.8 1.2zM65.4 423.8h257.6v17c0 103.4-66.2 150.8-156.8 150.8-113.6 0-166-61.6-166-155.2 0-85 50.6-148 165-148 62.8 0 136 23.4 148.8 92.2h-66.2c-24-71.6-175.4-73.4-182.4 43.2zM255.4 466.6h-188.8c13.8 113.2 184.2 109.4 188.8 0z" />
<glyph unicode="&#xe90d;" glyph-name="filter-list" d="M256 384.667v84h512v-84h-512zM128 682.667h768v-86h-768v86zM426 170.667v86h172v-86h-172z" />
<glyph unicode="&#xe90e;" glyph-name="tagged" d="M234 640.667q26 0 45 19t19 45-19 45-45 19-45-19-19-45 19-45 45-19zM914 444.667q24-24 24-60t-24-60l-300-300q-24-24-60-24t-60 24l-384 384q-24 24-24 60v300q0 34 25 59t59 25h300q36 0 60-24z" />
<glyph unicode="&#xe90f;" glyph-name="etsy" horiz-adv-x="878" d="M296 846.286v-374.286c132.571-1.143 202.286 5.714 202.286 5.714 53.714 1.714 61.714 15.429 74.286 68l18.857 81.143h58.857l-8-184 4-182.286h-58.857l-16.571 72.571c-12 54.286-35.429 67.429-73.714 68 0 0-49.143 4.571-201.143 4.571v-317.714c0-59.429 32.571-87.429 101.143-87.429h204c68.571 0 130.286 6.857 172.571 104.571l53.143 123.429h50.857c-4-24.571-31.429-251.429-35.429-301.714-188 6.857-268.571 6.857-268.571 6.857h-358.857l-214.857-6.857v58.286l72.571 14.286c50.857 9.714 66.286 24.571 66.857 66.286 3.429 138.286 4.571 367.429 4.571 367.429s1.714 229.714-4.571 368.571c-1.714 47.429-16 58.857-66.857 68.571l-72.571 13.714v58.286l214.857-6.857h401.143s79.429 0 213.714 15.429c-8-87.429-17.714-289.143-17.714-289.143h-53.143l-18.286 70.857c-22.286 88.571-52 136-106.857 136h-313.143c-23.429 0-24.571-8-24.571-22.286z" />
<glyph unicode="&#xe910;" glyph-name="tiktok" d="M534.613 959.147c55.893 0.853 111.36 0.427 166.827 0.853 3.413-65.28 26.88-131.84 74.667-177.92 47.787-47.36 115.2-69.12 180.907-76.373v-171.947c-61.44 2.133-123.307 14.933-179.2 41.387-24.32 11.093-46.933 25.173-69.12 39.68-0.427-124.587 0.427-249.173-0.853-373.333-3.413-59.733-23.040-119.040-57.6-168.107-55.893-81.92-152.747-135.253-252.16-136.96-61.013-3.413-122.027 13.227-174.080 43.947-86.187 50.773-146.773 143.787-155.733 243.627-0.853 21.333-1.28 42.667-0.427 63.573 7.68 81.067 47.787 158.72 110.080 211.627 70.827 61.44 169.813 90.88 262.4 73.387 0.853-63.147-1.707-126.293-1.707-189.44-42.24 13.653-91.733 9.813-128.853-15.787-26.88-17.493-47.36-44.373-58.027-74.667-8.96-21.76-6.4-45.653-5.973-68.693 10.24-69.973 77.653-128.853 149.333-122.453 47.787 0.427 93.44 28.16 118.187 68.693 8.107 14.080 17.067 28.587 17.493 45.227 4.267 76.373 2.56 152.32 2.987 228.693 0.427 171.947-0.427 343.467 0.853 514.987z" />
<glyph unicode="&#xe911;" glyph-name="strava" horiz-adv-x="768" d="M316.8 960l-302.8-584h178.4l124.4 232.2 123.4-232.2h177zM617.2 376l-87.8-176.4-89.2 176.4h-135.2l224.4-440 223 440z" />
<glyph unicode="&#xe912;" glyph-name="info-outline" d="M470 554.667v86h84v-86h-84zM512 84.667q140 0 241 101t101 241-101 241-241 101-241-101-101-241 101-241 241-101zM512 852.667q176 0 301-125t125-301-125-301-301-125-301 125-125 301 125 301 301 125zM470 212.667v256h84v-256h-84z" />
<glyph unicode="&#xe913;" glyph-name="info" d="M554 554.667v86h-84v-86h84zM554 212.667v256h-84v-256h84zM512 852.667q176 0 301-125t125-301-125-301-301-125-301 125-125 301 125 301 301 125z" />
<glyph unicode="&#xe914;" glyph-name="video-camera" d="M1024 749.714v-621.714c0-14.857-9.143-28-22.286-33.714-4.571-1.714-9.714-2.857-14.286-2.857-9.714 0-18.857 3.429-25.714 10.857l-230.286 230.286v-94.857c0-90.857-73.714-164.571-164.571-164.571h-402.286c-90.857 0-164.571 73.714-164.571 164.571v402.286c0 90.857 73.714 164.571 164.571 164.571h402.286c90.857 0 164.571-73.714 164.571-164.571v-94.286l230.286 229.714c6.857 7.429 16 10.857 25.714 10.857 4.571 0 9.714-1.143 14.286-2.857 13.143-5.714 22.286-18.857 22.286-33.714z" />
<glyph unicode="&#xe915;" glyph-name="videocam" d="M726 490.667l170 170v-468l-170 170v-150q0-18-13-30t-31-12h-512q-18 0-30 12t-12 30v428q0 18 12 30t30 12h512q18 0 31-12t13-30v-150z" />
<glyph unicode="&#xf004;" glyph-name="heart" d="M0 610.286q0 125.714 72.571 196.571t200.571 70.857q35.429 0 72.286-12.286t68.571-33.143 54.571-39.143 43.429-38.857q20.571 20.571 43.429 38.857t54.571 39.143 68.571 33.143 72.286 12.286q128 0 200.571-70.857t72.571-196.571q0-126.286-130.857-257.143l-356-342.857q-10.286-10.286-25.143-10.286t-25.143 10.286l-356.571 344q-5.714 4.571-15.714 14.857t-31.714 37.429-38.857 55.714-30.571 69.143-13.429 78.857z" />
<glyph unicode="&#xf007;" glyph-name="user" horiz-adv-x="805" d="M0 148q0 30.286 2 59.143t8 62.286 15.143 62 24.571 55.714 35.429 46.286 48.857 30.571 63.714 11.429q5.143 0 24-12.286t42.571-27.429 61.714-27.429 76.286-12.286 76.286 12.286 61.714 27.429 42.571 27.429 24 12.286q34.857 0 63.714-11.429t48.857-30.571 35.429-46.286 24.571-55.714 15.143-62 8-62.286 2-59.143q0-68.571-41.714-108.286t-110.857-39.714h-499.429q-69.143 0-110.857 39.714t-41.714 108.286zM182.857 658.286q0 90.857 64.286 155.143t155.143 64.286 155.143-64.286 64.286-155.143-64.286-155.143-155.143-64.286-155.143 64.286-64.286 155.143z" />
<glyph unicode="&#xf00c;" glyph-name="check-bold" d="M69.143 420.571q0 22.857 16 38.857l77.714 77.714q16 16 38.857 16t38.857-16l168-168.571 374.857 375.429q16 16 38.857 16t38.857-16l77.714-77.714q16-16 16-38.857t-16-38.857l-491.429-491.429q-16-16-38.857-16t-38.857 16l-284.571 284.571q-16 16-16 38.857z" />
<glyph unicode="&#xf00d;" glyph-name="close-bold" horiz-adv-x="805" d="M62.857 195.428q0 22.857 16 38.857l168 168-168 168q-16 16-16 38.857t16 38.857l77.714 77.714q16 16 38.857 16t38.857-16l168-168 168 168q16 16 38.857 16t38.857-16l77.714-77.714q16-16 16-38.857t-16-38.857l-168-168 168-168q16-16 16-38.857t-16-38.857l-77.714-77.714q-16-16-38.857-16t-38.857 16l-168 168-168-168q-16-16-38.857-16t-38.857 16l-77.714 77.714q-16 16-16 38.857z" />
<glyph unicode="&#xf01e;" glyph-name="repeat, rotate-right" horiz-adv-x="878" d="M877.714 804.571v-256q0-14.857-10.857-25.714t-25.714-10.857h-256q-24 0-33.714 22.857-9.714 22.286 8 39.429l78.857 78.857q-84.571 78.286-199.429 78.286-59.429 0-113.429-23.143t-93.429-62.571-62.571-93.429-23.143-113.429 23.143-113.429 62.571-93.429 93.429-62.571 113.429-23.143q68 0 128.571 29.714t102.286 84q4 5.714 13.143 6.857 8 0 14.286-5.143l78.286-78.857q5.143-4.571 5.429-11.714t-4.286-12.857q-62.286-75.429-150.857-116.857t-186.857-41.429q-89.143 0-170.286 34.857t-140 93.714-93.714 140-34.857 170.286 34.857 170.286 93.714 140 140 93.714 170.286 34.857q84 0 162.571-31.714t139.714-89.429l74.286 73.714q16.571 17.714 40 8 22.286-9.714 22.286-33.714z" />
<glyph unicode="&#xf02b;" glyph-name="tag" horiz-adv-x="866" d="M256 694.857c0 40.571-32.571 73.143-73.143 73.143s-73.143-32.571-73.143-73.143 32.571-73.143 73.143-73.143 73.143 32.571 73.143 73.143zM865.714 365.714c0-19.429-8-38.286-21.143-51.429l-280.571-281.143c-13.714-13.143-32.571-21.143-52-21.143s-38.286 8-51.429 21.143l-408.571 409.143c-29.143 28.571-52 84-52 124.571v237.714c0 40 33.143 73.143 73.143 73.143h237.714c40.571 0 96-22.857 125.143-52l408.571-408c13.143-13.714 21.143-32.571 21.143-52z" />
<glyph unicode="&#xf041;" glyph-name="map-marker" horiz-adv-x="585" d="M438.857 585.143c0 80.571-65.714 146.286-146.286 146.286s-146.286-65.714-146.286-146.286 65.714-146.286 146.286-146.286 146.286 65.714 146.286 146.286zM585.143 585.143c0-34.857-4-70.857-18.857-102.286l-208-442.286c-12-25.143-38.286-40.571-65.714-40.571s-53.714 15.429-65.143 40.571l-208.571 442.286c-14.857 31.429-18.857 67.429-18.857 102.286 0 161.714 130.857 292.571 292.571 292.571s292.571-130.857 292.571-292.571z" />
<glyph unicode="&#xf04b;" glyph-name="play-filled" horiz-adv-x="805" d="M0 18.286v841.143q0 14.857 9.429 20.571t22.571-1.714l758.857-421.714q13.143-7.429 13.143-17.714t-13.143-17.714l-758.857-421.714q-13.143-7.429-22.571-1.714t-9.429 20.571z" />
<glyph unicode="&#xf053;" glyph-name="chevron-left-bold" horiz-adv-x="731" d="M88 475.428q0 14.857 10.857 25.714l424 424q10.857 10.857 25.714 10.857t25.714-10.857l94.857-94.857q10.857-10.857 10.857-25.714t-10.857-25.714l-303.429-303.429 303.429-303.429q10.857-10.857 10.857-25.714t-10.857-25.714l-94.857-94.857q-10.857-10.857-25.714-10.857t-25.714 10.857l-424 424q-10.857 10.857-10.857 25.714z" />
<glyph unicode="&#xf054;" glyph-name="chevron-right-bold" horiz-adv-x="731" d="M51.429 146.286q0 14.857 10.857 25.714l303.429 303.429-303.429 303.429q-10.857 10.857-10.857 25.714t10.857 25.714l94.857 94.857q10.857 10.857 25.714 10.857t25.714-10.857l424-424q10.857-10.857 10.857-25.714t-10.857-25.714l-424-424q-10.857-10.857-25.714-10.857t-25.714 10.857l-94.857 94.857q-10.857 10.857-10.857 25.714z" />
<glyph unicode="&#xf065;" glyph-name="expand" d="M0 36.571v256q0 14.857 10.857 25.714t25.714 10.857 25.714-10.857l82.286-82.286 189.714 189.714q5.714 5.714 13.143 5.714t13.143-5.714l65.143-65.143q5.714-5.714 5.714-13.143t-5.714-13.143l-189.714-189.714 82.286-82.286q10.857-10.857 10.857-25.714t-10.857-25.714-25.714-10.857h-256q-14.857 0-25.714 10.857t-10.857 25.714zM446.286 530.286q0 7.429 5.714 13.143l189.714 189.714-82.286 82.286q-10.857 10.857-10.857 25.714t10.857 25.714 25.714 10.857h256q14.857 0 25.714-10.857t10.857-25.714v-256q0-14.857-10.857-25.714t-25.714-10.857-25.714 10.857l-82.286 82.286-189.714-189.714q-5.714-5.714-13.143-5.714t-13.143 5.714l-65.143 65.143q-5.714 5.714-5.714 13.143z" />
<glyph unicode="&#xf066;" glyph-name="compress" d="M7.429 91.428q0 7.429 5.714 13.143l189.714 189.714-82.286 82.286q-10.857 10.857-10.857 25.714t10.857 25.714 25.714 10.857h256q14.857 0 25.714-10.857t10.857-25.714v-256q0-14.857-10.857-25.714t-25.714-10.857-25.714 10.857l-82.286 82.286-189.714-189.714q-5.714-5.714-13.143-5.714t-13.143 5.714l-65.143 65.143q-5.714 5.714-5.714 13.143zM438.857 475.428v256q0 14.857 10.857 25.714t25.714 10.857 25.714-10.857l82.286-82.286 189.714 189.714q5.714 5.714 13.143 5.714t13.143-5.714l65.143-65.143q5.714-5.714 5.714-13.143t-5.714-13.143l-189.714-189.714 82.286-82.286q10.857-10.857 10.857-25.714t-10.857-25.714-25.714-10.857h-256q-14.857 0-25.714 10.857t-10.857 25.714z" />
<glyph unicode="&#xf067;" glyph-name="plus-bold" horiz-adv-x="805" d="M0 420.571v109.714q0 22.857 16 38.857t38.857 16h237.714v237.714q0 22.857 16 38.857t38.857 16h109.714q22.857 0 38.857-16t16-38.857v-237.714h237.714q22.857 0 38.857-16t16-38.857v-109.714q0-22.857-16-38.857t-38.857-16h-237.714v-237.714q0-22.857-16-38.857t-38.857-16h-109.714q-22.857 0-38.857 16t-16 38.857v237.714h-237.714q-22.857 0-38.857 16t-16 38.857z" />
<glyph unicode="&#xf068;" glyph-name="minus-bold" horiz-adv-x="805" d="M0 420.571v109.714q0 22.857 16 38.857t38.857 16h694.857q22.857 0 38.857-16t16-38.857v-109.714q0-22.857-16-38.857t-38.857-16h-694.857q-22.857 0-38.857 16t-16 38.857z" />
<glyph unicode="&#xf077;" glyph-name="chevron-up-bold" d="M51.429 216.286q0 15.143 10.857 26l424 423.429q10.857 10.857 25.714 10.857t25.714-10.857l424-423.429q10.857-10.857 10.857-26t-10.857-26l-94.857-94.286q-10.857-10.857-25.714-10.857t-25.714 10.857l-303.429 303.429-303.429-303.429q-10.857-10.857-25.714-10.857t-25.714 10.857l-94.857 94.286q-10.857 10.857-10.857 26z" />
<glyph unicode="&#xf078;" glyph-name="chevron-down-bold" d="M51.429 515.143q0 15.143 10.857 26l94.857 94.286q10.857 10.857 25.714 10.857t25.714-10.857l303.429-303.429 303.429 303.429q10.857 10.857 25.714 10.857t25.714-10.857l94.857-94.286q10.857-10.857 10.857-26t-10.857-26l-424-423.429q-10.857-10.857-25.714-10.857t-25.714 10.857l-424 423.429q-10.857 10.857-10.857 26z" />
<glyph unicode="&#xf07a;" glyph-name="shopping-cart" horiz-adv-x="951" d="M0 768q0 14.857 10.857 25.714t25.714 10.857h146.286q9.143 0 16.286-3.714t11.429-8.857 7.429-14 4.286-15.143 3.143-16.857 2.571-14.571h686.286q14.857 0 25.714-10.857t10.857-25.714v-292.571q0-13.714-9.143-24.286t-23.429-12.286l-596.571-69.714q0.571-4 2.571-12.286t3.429-15.143 1.429-12.571q0-9.143-13.714-36.571h525.714q14.857 0 25.714-10.857t10.857-25.714-10.857-25.714-25.714-10.857h-585.143q-14.857 0-25.714 10.857t-10.857 25.714q0 8 6.286 22.571t16.857 34 11.714 21.714l-101.143 470.286h-116.571q-14.857 0-25.714 10.857t-10.857 25.714zM219.429 73.143q0 30.286 21.429 51.714t51.714 21.429 51.714-21.429 21.429-51.714-21.429-51.714-51.714-21.429-51.714 21.429-21.429 51.714zM731.429 73.143q0 30.286 21.429 51.714t51.714 21.429 51.714-21.429 21.429-51.714-21.429-51.714-51.714-21.429-51.714 21.429-21.429 51.714z" />
<glyph unicode="&#xf08a;" glyph-name="heart-o" d="M0 610.286q0 125.714 72.571 196.571t200.571 70.857q35.429 0 72.286-12.286t68.571-33.143 54.571-39.143 43.429-38.857q20.571 20.571 43.429 38.857t54.571 39.143 68.571 33.143 72.286 12.286q128 0 200.571-70.857t72.571-196.571q0-126.286-130.857-257.143l-356-342.857q-10.286-10.286-25.143-10.286t-25.143 10.286l-356.571 344q-5.714 4.571-15.714 14.857t-31.714 37.429-38.857 55.714-30.571 69.143-13.429 78.857zM73.143 610.286q0-96 106.857-202.857l332-320 331.429 319.429q107.429 107.429 107.429 203.429 0 46.286-12.286 81.714t-31.429 56.286-46.571 34-53.714 17.714-56 4.571-64-14.571-63.143-36.571-49.429-41.143-34.286-35.143q-10.286-12.571-28-12.571t-28 12.571q-13.714 16-34.286 35.143t-49.429 41.143-63.143 36.571-64 14.571-56-4.571-53.714-17.714-46.571-34-31.429-56.286-12.286-81.714z" />
<glyph unicode="&#xf099;" glyph-name="twitter" horiz-adv-x="951" d="M25.143 156q20-2.286 44.571-2.286 128.571 0 229.143 78.857-60 1.143-107.429 36.857t-65.143 91.143q18.857-2.857 34.857-2.857 24.571 0 48.571 6.286-64 13.143-106 63.714t-42 117.429v2.286q38.857-21.714 83.429-23.429-37.714 25.143-60 65.714t-22.286 88q0 50.286 25.143 93.143 69.143-85.143 168.286-136.286t212.286-56.857q-4.571 21.714-4.571 42.286 0 76.571 54 130.571t130.571 54q80 0 134.857-58.286 62.286 12 117.143 44.571-21.143-65.714-81.143-101.714 53.143 5.714 106.286 28.571-38.286-56-92.571-95.429 0.571-8 0.571-24 0-74.286-21.714-148.286t-66-142-105.429-120.286-147.429-83.429-184.571-31.143q-154.857 0-283.429 82.857z" />
<glyph unicode="&#xf09a;" glyph-name="facebook" horiz-adv-x="585" d="M54.286 433.714v169.143h145.714v124.571q0 106.286 59.429 164.857t158.286 58.571q84 0 130.286-6.857v-150.857h-89.714q-49.143 0-66.286-20.571t-17.143-61.714v-108h167.429l-22.286-169.143h-145.143v-433.714h-174.857v433.714h-145.714z" />
<glyph unicode="&#xf09d;" glyph-name="credit-card" horiz-adv-x="1097" d="M1005.714 877.714q37.714 0 64.571-26.857t26.857-64.571v-694.857q0-37.714-26.857-64.571t-64.571-26.857h-914.286q-37.714 0-64.571 26.857t-26.857 64.571v694.857q0 37.714 26.857 64.571t64.571 26.857h914.286zM91.429 804.571q-7.429 0-12.857-5.429t-5.429-12.857v-128h950.857v128q0 7.429-5.429 12.857t-12.857 5.429h-914.286zM1005.714 73.143q7.429 0 12.857 5.429t5.429 12.857v347.429h-950.857v-347.429q0-7.429 5.429-12.857t12.857-5.429h914.286zM146.286 146.286v73.143h146.286v-73.143h-146.286zM365.714 146.286v73.143h219.429v-73.143h-219.429z" />
<glyph unicode="&#xf0d2;" glyph-name="pinterest" d="M0 438.857q0 119.429 58.857 220.286t159.714 159.714 220.286 58.857 220.286-58.857 159.714-159.714 58.857-220.286-58.857-220.286-159.714-159.714-220.286-58.857q-63.429 0-124.571 18.286 33.714 53.143 44.571 93.714 5.143 19.429 30.857 120.571 11.429-22.286 41.714-38.571t65.143-16.286q69.143 0 123.429 39.143t84 107.714 29.714 154.286q0 65.143-34 122.286t-98.571 93.143-145.714 36q-60 0-112-16.571t-88.286-44-62.286-63.143-38.286-74-12.286-76.571q0-59.429 22.857-104.571t66.857-63.429q17.143-6.857 21.714 11.429 1.143 4 4.571 17.714t4.571 17.143q3.429 13.143-6.286 24.571-29.143 34.857-29.143 86.286 0 86.286 59.714 148.286t156.286 62q86.286 0 134.571-46.857t48.286-121.714q0-97.143-39.143-165.143t-100.286-68q-34.857 0-56 24.857t-13.143 59.714q4.571 20 15.143 53.429t17.143 58.857 6.571 43.143q0 28.571-15.429 47.429t-44 18.857q-35.429 0-60-32.571t-24.571-81.143q0-41.714 14.286-69.714l-56.571-238.857q-9.714-40-7.429-101.143-117.714 52-190.286 160.571t-72.571 241.714z" />
<glyph unicode="&#xf0d7;" glyph-name="caret-down" horiz-adv-x="585" d="M0 548.571q0 14.857 10.857 25.714t25.714 10.857h512q14.857 0 25.714-10.857t10.857-25.714-10.857-25.714l-256-256q-10.857-10.857-25.714-10.857t-25.714 10.857l-256 256q-10.857 10.857-10.857 25.714z" />
<glyph unicode="&#xf0d8;" glyph-name="caret-up" horiz-adv-x="585" d="M0 256q0 14.857 10.857 25.714l256 256q10.857 10.857 25.714 10.857t25.714-10.857l256-256q10.857-10.857 10.857-25.714t-10.857-25.714-25.714-10.857h-512q-14.857 0-25.714 10.857t-10.857 25.714z" />
<glyph unicode="&#xf0d9;" glyph-name="caret-left" horiz-adv-x="366" d="M36.571 438.857q0 14.857 10.857 25.714l256 256q10.857 10.857 25.714 10.857t25.714-10.857 10.857-25.714v-512q0-14.857-10.857-25.714t-25.714-10.857-25.714 10.857l-256 256q-10.857 10.857-10.857 25.714z" />
<glyph unicode="&#xf0da;" glyph-name="caret-right" horiz-adv-x="366" d="M0 182.857v512q0 14.857 10.857 25.714t25.714 10.857 25.714-10.857l256-256q10.857-10.857 10.857-25.714t-10.857-25.714l-256-256q-10.857-10.857-25.714-10.857t-25.714 10.857-10.857 25.714z" />
<glyph unicode="&#xf0e0;" glyph-name="envelope" d="M1024 545.143v-453.714q0-37.714-26.857-64.571t-64.571-26.857h-841.143q-37.714 0-64.571 26.857t-26.857 64.571v453.714q25.143-28 57.714-49.714 206.857-140.571 284-197.143 32.571-24 52.857-37.429t54-27.429 62.857-14h1.143q29.143 0 62.857 14t54 27.429 52.857 37.429q97.143 70.286 284.571 197.143 32.571 22.286 57.143 49.714zM1024 713.143q0-45.143-28-86.286t-69.714-70.286q-214.857-149.143-267.429-185.714-5.714-4-24.286-17.429t-30.857-21.714-29.714-18.571-32.857-15.429-28.571-5.143h-1.143q-13.143 0-28.571 5.143t-32.857 15.429-29.714 18.571-30.857 21.714-24.286 17.429q-52 36.571-149.714 104.286t-117.143 81.429q-35.429 24-66.857 66t-31.429 78q0 44.571 23.714 74.286t67.714 29.714h841.143q37.143 0 64.286-26.857t27.143-64.571z" />
<glyph unicode="&#xf0e1;" glyph-name="linkedin" d="M0 768.571q0 42.286 29.429 70t76.857 27.714 76-27.714 29.143-70q0.571-41.714-28.857-69.714t-77.429-28h-1.143q-46.857 0-75.429 28t-28.571 69.714zM10.857 27.428v566.286h188.571v-566.286h-188.571zM303.429 27.428q1.143 228 1.143 369.714t-0.571 169.143l-0.571 27.429h188v-82.286h-1.143q11.429 18.286 23.429 32t32.286 29.714 49.714 24.857 65.429 8.857q97.714 0 157.143-64.857t59.429-190v-324.571h-188v302.857q0 60-23.143 94t-72.286 34q-36 0-60.286-19.714t-36.286-48.857q-6.286-17.143-6.286-46.286v-316h-188z" />
<glyph unicode="&#xf102;" glyph-name="angle-double-up" horiz-adv-x="658" d="M44 201.143q0 7.429 5.714 13.143l266.286 266.286q5.714 5.714 13.143 5.714t13.143-5.714l266.286-266.286q5.714-5.714 5.714-13.143t-5.714-13.143l-28.571-28.571q-5.714-5.714-13.143-5.714t-13.143 5.714l-224.571 224.571-224.571-224.571q-5.714-5.714-13.143-5.714t-13.143 5.714l-28.571 28.571q-5.714 5.714-5.714 13.143zM44 420.571q0 7.429 5.714 13.143l266.286 266.286q5.714 5.714 13.143 5.714t13.143-5.714l266.286-266.286q5.714-5.714 5.714-13.143t-5.714-13.143l-28.571-28.571q-5.714-5.714-13.143-5.714t-13.143 5.714l-224.571 224.571-224.571-224.571q-5.714-5.714-13.143-5.714t-13.143 5.714l-28.571 28.571q-5.714 5.714-5.714 13.143z" />
<glyph unicode="&#xf103;" glyph-name="angle-double-down" horiz-adv-x="658" d="M44 457.143q0 7.429 5.714 13.143l28.571 28.571q5.714 5.714 13.143 5.714t13.143-5.714l224.571-224.571 224.571 224.571q5.714 5.714 13.143 5.714t13.143-5.714l28.571-28.571q5.714-5.714 5.714-13.143t-5.714-13.143l-266.286-266.286q-5.714-5.714-13.143-5.714t-13.143 5.714l-266.286 266.286q-5.714 5.714-5.714 13.143zM44 676.571q0 7.429 5.714 13.143l28.571 28.571q5.714 5.714 13.143 5.714t13.143-5.714l224.571-224.571 224.571 224.571q5.714 5.714 13.143 5.714t13.143-5.714l28.571-28.571q5.714-5.714 5.714-13.143t-5.714-13.143l-266.286-266.286q-5.714-5.714-13.143-5.714t-13.143 5.714l-266.286 266.286q-5.714 5.714-5.714 13.143z" />
<glyph unicode="&#xf104;" glyph-name="angle-left" horiz-adv-x="366" d="M25.714 402.286q0 7.429 5.714 13.143l266.286 266.286q5.714 5.714 13.143 5.714t13.143-5.714l28.571-28.571q5.714-5.714 5.714-13.143t-5.714-13.143l-224.571-224.571 224.571-224.571q5.714-5.714 5.714-13.143t-5.714-13.143l-28.571-28.571q-5.714-5.714-13.143-5.714t-13.143 5.714l-266.286 266.286q-5.714 5.714-5.714 13.143z" />
<glyph unicode="&#xf105;" glyph-name="angle-right" horiz-adv-x="366" d="M7.429 164.571q0 7.429 5.714 13.143l224.571 224.571-224.571 224.571q-5.714 5.714-5.714 13.143t5.714 13.143l28.571 28.571q5.714 5.714 13.143 5.714t13.143-5.714l266.286-266.286q5.714-5.714 5.714-13.143t-5.714-13.143l-266.286-266.286q-5.714-5.714-13.143-5.714t-13.143 5.714l-28.571 28.571q-5.714 5.714-5.714 13.143z" />
<glyph unicode="&#xf106;" glyph-name="angle-up" horiz-adv-x="658" d="M44 274.286q0 7.429 5.714 13.143l266.286 266.286q5.714 5.714 13.143 5.714t13.143-5.714l266.286-266.286q5.714-5.714 5.714-13.143t-5.714-13.143l-28.571-28.571q-5.714-5.714-13.143-5.714t-13.143 5.714l-224.571 224.571-224.571-224.571q-5.714-5.714-13.143-5.714t-13.143 5.714l-28.571 28.571q-5.714 5.714-5.714 13.143z" />
<glyph unicode="&#xf107;" glyph-name="angle-down" horiz-adv-x="658" d="M44 530.286q0 7.429 5.714 13.143l28.571 28.571q5.714 5.714 13.143 5.714t13.143-5.714l224.571-224.571 224.571 224.571q5.714 5.714 13.143 5.714t13.143-5.714l28.571-28.571q5.714-5.714 5.714-13.143t-5.714-13.143l-266.286-266.286q-5.714-5.714-13.143-5.714t-13.143 5.714l-266.286 266.286q-5.714 5.714-5.714 13.143z" />
<glyph unicode="&#xf111;" glyph-name="circle" d="M0 438.857q0 119.429 58.857 220.286t159.714 159.714 220.286 58.857 220.286-58.857 159.714-159.714 58.857-220.286-58.857-220.286-159.714-159.714-220.286-58.857-220.286 58.857-159.714 159.714-58.857 220.286z" />
<glyph unicode="&#xf136;" glyph-name="maxcdn" d="M0 73.143l116.571 544.571-87.429 186.857h729.143q57.714 0 108.286-23.143t84.286-64.857q34.286-41.714 46.286-96.286t0-111.143l-93.714-436h-190.857l101.714 475.429q7.429 32-8.571 50.286-15.429 18.857-47.429 18.857h-96.571l-116.571-544.571h-190.857l116.571 544.571h-163.429l-116.571-544.571h-190.857z" />
<glyph unicode="&#xf13b;" glyph-name="html5" horiz-adv-x="805" d="M0 877.714h804.571l-73.143-821.714-330.286-92.571-328 92.571zM149.714 709.714l26.857-305.143h349.714l-12.571-130.286-112.571-30.286-112 30.286-7.429 80h-100l12.571-158.857 206.857-57.143h2.286v0.571l205.143 56.571 28.571 310.857h-368l-8.571 103.429h385.143l9.143 100h-505.143z" />
<glyph unicode="&#xf13c;" glyph-name="css3" d="M6.857 116l40.571 203.429h169.714l-16.571-84 241.143-92 277.714 92 38.857 193.714h-690.286l33.143 169.714h690.857l21.714 109.143h-690.286l33.714 169.714h860l-152-761.714-459.429-152.571z" />
<glyph unicode="&#xf143;" glyph-name="rss-square" d="M0 164.571v548.571q0 68 48.286 116.286t116.286 48.286h548.571q68 0 116.286-48.286t48.286-116.286v-548.571q0-68-48.286-116.286t-116.286-48.286h-548.571q-68 0-116.286 48.286t-48.286 116.286zM146.286 219.428q0-30.286 21.429-51.714t51.714-21.429 51.714 21.429 21.429 51.714-21.429 51.714-51.714 21.429-51.714-21.429-21.429-51.714zM146.286 401.714q0-7.429 4.857-12.571t12.286-5.714q88-6.286 150.857-69.143t69.143-150.857q0.571-7.429 5.714-12.286t12.571-4.857h73.143q7.429 0 13.143 5.714t5.143 13.714q-7.429 132.571-101.143 226.286t-226.286 101.143q-8 0.571-13.714-5.143t-5.714-13.143v-73.143zM146.286 621.143q0-7.429 5.143-12.571t12.571-5.714q116.571-4 216-63.714t159.143-159.143 63.714-216q0.571-7.429 5.714-12.571t12.571-5.143h73.143q7.429 0 13.143 5.714 6.286 5.143 5.143 13.143-2.857 88-32 170t-79.714 148.571-117.143 117.143-148.571 79.714-170 32q-8 0.571-13.143-5.143-5.714-5.714-5.714-13.143v-73.143z" />
<glyph unicode="&#xf145;" glyph-name="ticket" d="M585.143 692.571l180.571-180.571-326.857-326.857-180.571 180.571zM464.571 133.143l353.143 353.143c14.286 14.286 14.286 37.143 0 51.429l-206.857 206.857c-13.714 13.714-37.714 13.714-51.429 0l-353.143-353.143c-14.286-14.286-14.286-37.143 0-51.429l206.857-206.857c6.857-6.857 16-10.286 25.714-10.286s18.857 3.429 25.714 10.286zM972.571 497.143l-518.286-518.857c-28.571-28-75.429-28-103.429 0l-72 72c42.857 42.857 42.857 112.571 0 155.429s-112.571 42.857-155.429 0l-71.429 72c-28.571 28-28.571 74.857 0 103.429l518.286 517.714c28 28.571 74.857 28.571 103.429 0l71.429-71.429c-42.857-42.857-42.857-112.571 0-155.429s112.571-42.857 155.429 0l72-71.429c28-28.571 28-75.429 0-103.429z" />
<glyph unicode="&#xf15a;" glyph-name="bitcoin, btc" horiz-adv-x="757" d="M666.857 585.143q10.286-104-74.857-147.429 66.857-16 100-58.857t25.714-122.286q-4-40.571-18.571-71.429t-36.857-50.857-55.429-33.429-69.429-19.714-83.143-8.571v-145.714h-88v143.429q-45.714 0-69.714 0.571v-144h-88v145.714q-10.286 0-30.857 0.286t-31.429 0.286h-114.286l17.714 104.571h63.429q28.571 0 33.143 29.143v229.714h9.143q-3.429 0.571-9.143 0.571v164q-7.429 38.857-50.857 38.857h-63.429v93.714l121.143-0.571q36.571 0 55.429 0.571v144h88v-141.143q46.857 1.143 69.714 1.143v140h88v-144q45.143-4 80-12.857t64.571-25.714 47.143-44.571 20.857-65.429zM544 273.714q0 20.571-8.571 36.571t-21.143 26.286-32.857 17.429-37.429 10.571-42.286 5.143-39.429 1.714-36.857-0.571-27.143-0.571v-193.143q4.571 0 21.143-0.286t27.429-0.286 30.286 0.857 33.429 2.286 32.571 4.857 31.714 8 27.143 12 22.571 17.143 14 22.857 5.429 29.143zM503.429 545.714q0 18.857-7.143 33.429t-17.429 24-27.429 16-31.429 9.429-35.143 4.571-33.143 1.429-30.857-0.571-22.571-0.286v-175.429q2.857 0 19.714-0.286t26.571 0 28.571 1.143 31.429 3.143 29.429 6.286 27.714 10.571 21.143 15.429 15.429 22 5.143 29.143z" />
<glyph unicode="&#xf167;" glyph-name="youtube" d="M15.429 221.714q0 133.714 14.857 200 8 33.714 33.143 56.571t58.857 26.857q104.571 11.429 316.571 11.429t317.143-11.429q33.143-4 58.571-26.857t32.857-56.571q14.857-64 14.857-200 0-133.714-14.857-200-8-33.714-33.143-56.571t-58.286-26.286q-105.143-12-317.143-12t-317.143 12q-33.143 3.429-58.571 26.286t-32.857 56.571q-14.857 64-14.857 200zM78.857 364h60v-325.143h57.143v325.143h61.143v53.714h-178.286v-53.714zM152 950.857h60.571l40.571-150.286 38.857 150.286h58.286l-69.143-228v-154.857h-57.143v154.857q-8 42.286-34.857 121.143-21.143 58.857-37.143 106.857zM264.571 97.714q0-28 4.571-41.714 6.857-21.143 33.143-21.143 27.429 0 58.286 34.857v-30.857h50.857v282.286h-50.857v-216q-17.143-24-32.571-24-10.286 0-12 12-0.571 1.714-0.571 20v208h-50.857v-223.429zM350.857 660.571v100q0 45.714 16 66.857 21.714 29.143 60 29.143 39.429 0 60.571-29.143 16-21.143 16-66.857v-100q0-46.286-16-67.429-21.143-29.143-60.571-29.143-38.286 0-60 29.143-16 21.714-16 67.429zM402.286 650.857q0-40 24.571-40t24.571 40v120q0 39.429-24.571 39.429t-24.571-39.429v-120zM456 38.857h50.857v27.429q25.714-31.429 53.143-31.429 30.857 0 40.571 31.429 5.143 15.429 5.143 57.143v112.571q0 41.714-5.143 56.571-9.714 32-40.571 32-28.571 0-53.143-30.857v124h-50.857v-378.857zM506.857 93.714v172q12.571 12.571 25.714 12.571 22.286 0 22.286-38.286v-120.571q0-38.286-22.286-38.286-13.143 0-25.714 12.571zM545.714 628v225.143h52v-209.714q0-18.857 0.571-20 1.714-12.571 12-12.571 15.429 0 32.571 24.571v217.714h52v-285.143h-52v31.429q-30.286-35.429-58.857-35.429-26.286 0-33.714 21.143-4.571 13.714-4.571 42.857zM645.714 130.286q0-45.143 16.571-66.286 22.286-29.143 61.714-29.143 41.143 0 61.714 30.286 10.286 15.429 12 30.857 1.143 5.143 1.143 33.143v7.429h-52q0-29.143-1.143-34.857-4-20.571-22.857-20.571-26.286 0-26.286 39.429v49.714h102.286v58.857q0 45.143-15.429 66.286-22.286 29.143-60.571 29.143-38.857 0-61.143-29.143-16-21.143-16-66.286v-98.857zM696.571 213.143v26.286q0 38.857 25.714 38.857t25.714-38.857v-26.286h-51.429z" />
<glyph unicode="&#xf168;" glyph-name="xing" horiz-adv-x="805" d="M2.857 292.571q-5.714 9.714 0 20.571l144.571 256q0.571 0 0 0.571l-92 159.429q-6.857 12.571-0.571 21.143 5.143 8.571 18.286 8.571h136.571q22.857 0 37.714-25.714l93.714-163.429q-5.714-10.286-146.857-260.571-15.429-26.286-37.143-26.286h-136.571q-12 0-17.714 9.714zM306.286 381.143q10.286 18.286 303.429 538.286 14.286 25.714 36.571 25.714h137.714q12.571 0 17.714-8.571 6.286-9.143 0-21.143l-301.714-533.714v-0.571l192-351.429q6.286-11.429 0.571-21.143-5.714-8.571-18.286-8.571h-136.571q-24 0-37.714 25.714z" />
<glyph unicode="&#xf16d;" glyph-name="instagram-old" d="M0 112.571v652.571q0 46.286 33.143 79.429t79.429 33.143h652.571q46.286 0 79.429-33.143t33.143-79.429v-652.571q0-46.286-33.143-79.429t-79.429-33.143h-652.571q-46.286 0-79.429 33.143t-33.143 79.429zM97.714 136q0-14.857 10-24.857t24.857-10h610.857q14.286 0 24.571 10t10.286 24.857v370.286h-77.143q11.429-36 11.429-74.857 0-72-36.571-132.857t-99.429-96.286-137.143-35.429q-112.571 0-192.571 77.429t-80 187.143q0 38.857 11.429 74.857h-80.571v-370.286zM263.429 440.571q0-70.857 51.714-120.857t124.286-50q73.143 0 124.857 50t51.714 120.857-51.714 120.857-124.857 50q-72.571 0-124.286-50t-51.714-120.857zM600 646.286q0-16.571 11.429-28t28-11.429h99.429q16.571 0 28 11.429t11.429 28v94.286q0 16-11.429 27.714t-28 11.714h-99.429q-16.571 0-28-11.714t-11.429-27.714v-94.286z" />
<glyph unicode="&#xf16e;" glyph-name="flickr" d="M0 164.571v548.571q0 68 48.286 116.286t116.286 48.286h548.571q68 0 116.286-48.286t48.286-116.286v-548.571q0-68-48.286-116.286t-116.286-48.286h-548.571q-68 0-116.286 48.286t-48.286 116.286zM156.571 438.857q0-50.286 35.429-85.714t85.714-35.429 85.714 35.429 35.429 85.714-35.429 85.714-85.714 35.429-85.714-35.429-35.429-85.714zM478.857 438.857q0-50.286 35.429-85.714t85.714-35.429 85.714 35.429 35.429 85.714-35.429 85.714-85.714 35.429-85.714-35.429-35.429-85.714z" />
<glyph unicode="&#xf16f;" glyph-name="instagram" horiz-adv-x="878" d="M585.143 438.857q0 60.571-42.857 103.429t-103.429 42.857-103.429-42.857-42.857-103.429 42.857-103.429 103.429-42.857 103.429 42.857 42.857 103.429zM664 438.857q0-93.714-65.714-159.429t-159.429-65.714-159.429 65.714-65.714 159.429 65.714 159.429 159.429 65.714 159.429-65.714 65.714-159.429zM725.714 673.143q0-21.714-15.429-37.143t-37.143-15.429-37.143 15.429-15.429 37.143 15.429 37.143 37.143 15.429 37.143-15.429 15.429-37.143zM438.857 798.857q-4 0-43.714 0.286t-60.286 0-55.143-1.714-58.857-5.714-40.857-10.571q-28.571-11.429-50.286-33.143t-33.143-50.286q-6.286-16.571-10.571-40.857t-5.714-58.857-1.714-55.143 0-60.286 0.286-43.714-0.286-43.714 0-60.286 1.714-55.143 5.714-58.857 10.571-40.857q11.429-28.571 33.143-50.286t50.286-33.143q16.571-6.286 40.857-10.571t58.857-5.714 55.143-1.714 60.286 0 43.714 0.286 43.714-0.286 60.286 0 55.143 1.714 58.857 5.714 40.857 10.571q28.571 11.429 50.286 33.143t33.143 50.286q6.286 16.571 10.571 40.857t5.714 58.857 1.714 55.143 0 60.286-0.286 43.714 0.286 43.714 0 60.286-1.714 55.143-5.714 58.857-10.571 40.857q-11.429 28.571-33.143 50.286t-50.286 33.143q-16.571 6.286-40.857 10.571t-58.857 5.714-55.143 1.714-60.286 0-43.714-0.286zM877.714 438.857q0-130.857-2.857-181.143-5.714-118.857-70.857-184t-184-70.857q-50.286-2.857-181.143-2.857t-181.143 2.857q-118.857 5.714-184 70.857t-70.857 184q-2.857 50.286-2.857 181.143t2.857 181.143q5.714 118.857 70.857 184t184 70.857q50.286 2.857 181.143 2.857t181.143-2.857q118.857-5.714 184-70.857t70.857-184q2.857-50.286 2.857-181.143z" />
<glyph unicode="&#xf173;" glyph-name="tumblr" horiz-adv-x="585" d="M44.571 518.286v124q52 17.143 88.571 48 36.571 31.429 58.857 75.429 22.286 44.571 30.857 112h125.143v-221.714h208v-137.714h-208v-225.143q0-77.714 8-98.286 7.429-21.143 29.714-34.286 28.571-17.714 66.857-17.714 66.857 0 132.571 43.429v-138.286q-58.286-27.429-101.714-37.143-44-10.857-98.857-10.857-60 0-106.286 15.429-44.571 14.286-78.857 42.857-33.143 29.143-45.143 60-12.571 30.857-12.571 92v308h-97.143z" />
<glyph unicode="&#xf17d;" glyph-name="dribbble" d="M0 438.857q0 119.429 58.857 220.286t159.714 159.714 220.286 58.857 220.286-58.857 159.714-159.714 58.857-220.286-58.857-220.286-159.714-159.714-220.286-58.857-220.286 58.857-159.714 159.714-58.857 220.286zM64 438.857q0-70.857 25.143-135.143t70.857-115.143q28.571 50.857 70.571 95.143t81.429 71.143 74.571 46.286 56.857 27.429l21.143 7.429q2.286 0.571 7.429 2t7.429 2.571q-12 28-30.286 63.429-177.714-53.143-384.571-53.143-0.571-4-0.571-12zM72 516q172.571 0 346.286 45.714-68.571 121.714-139.429 216-78.857-37.143-133.714-106.286t-73.143-155.429zM200 149.714q105.143-85.714 238.857-85.714 75.429 0 146.286 29.714-24 137.714-80 284.571h-1.143l-1.143-0.571q-9.143-3.429-24.571-9.429t-57.714-28-78.286-46.857-74.857-65.429-58.857-84.571zM348 802.286q0.571 0.571 1.143 0.571-0.571 0-1.143-0.571zM350.286 802.857q74.857-97.143 140.571-218.286 39.429 14.857 74.286 34.571t55.143 35.143 37.429 32.571 21.429 23.143l7.143 10q-105.714 93.714-247.429 93.714-43.429 0-88.571-10.857zM519.429 528.571q14.286-30.286 25.143-54.286 1.143-3.429 3.714-10t4.286-9.429q20.571 2.857 42.571 4t42 1.143 39.429-0.857 36.571-2.286 32.286-3.143 27.429-3.714 20.857-3.429 14.286-2.571l5.714-1.143q-1.714 132.571-85.143 234.286l-0.571-0.571q-5.143-6.857-10.857-14t-24.857-25.429-40.571-34.571-57.143-37.143-75.143-36.857zM575.429 396q49.714-136.571 73.143-268 63.429 42.857 105.714 108.286t54.857 143.143q-120 34.286-233.714 16.571z" />
<glyph unicode="&#xf17e;" glyph-name="skype" d="M0 658.286q0 90.857 64.286 155.143t155.143 64.286q74.286 0 133.714-45.714 44 9.143 85.714 9.143 81.714 0 156.286-31.714t128.571-85.714 85.714-128.571 31.714-156.286q0-41.714-9.143-85.714 45.714-59.429 45.714-133.714 0-90.857-64.286-155.143t-155.143-64.286q-74.286 0-133.714 45.714-44-9.143-85.714-9.143-81.714 0-156.286 31.714t-128.571 85.714-85.714 128.571-31.714 156.286q0 41.714 9.143 85.714-45.714 59.429-45.714 133.714zM214.857 301.143q0-52.571 69.714-90t166.286-37.429q41.714 0 80 10.571t70 30.571 50.571 53.429 18.857 75.143q0 28.571-11.143 52.286t-27.714 39.143-41.714 28-47.143 19.429-50 13.143l-59.429 13.714q-17.143 4-25.143 6t-20 6.571-17.143 9.143-9.429 12-4.286 17.143q0 44 82.286 44 24.571 0 44-6.857t30.857-16.286 21.714-19.143 22.857-16.571 27.429-6.857q26.857 0 43.143 18.286t16.286 44q0 31.429-32 56.857t-81.143 38.571-104 13.143q-38.857 0-75.429-8.857t-68.286-26.857-50.857-49.714-19.143-73.429q0-34.857 10.857-60.857t32-43.143 45.714-27.714 58.857-18.571l83.429-20.571q51.429-12.571 64-20.571 18.286-11.429 18.286-34.286 0-22.286-22.857-36.857t-60-14.571q-29.143 0-52.286 9.143t-37.143 22-26 25.714-26.286 22-30.857 9.143q-28.571 0-43.143-17.143t-14.571-42.857z" />
<glyph unicode="&#xf189;" glyph-name="vk" horiz-adv-x="1097" d="M-0.571 646.857q0 6.286 1.714 9.143l2.286 3.429q8.571 10.857 32.571 10.857l156.571 1.143q6.857-1.143 13.143-3.714t9.143-4.857l2.857-1.714q9.143-6.286 13.714-18.286 11.429-28.571 26.286-59.143t23.429-46.571l9.143-16.571q16.571-34.286 32-59.429t27.714-39.143 23.714-22 19.429-8 15.429 2.857q1.143 0.571 2.857 2.857t6.857 12.571 7.714 26.857 5.429 46.286 0 71.429q-1.143 22.857-5.143 41.714t-8 26.286l-3.429 6.857q-14.286 19.429-48.571 24.571-7.429 1.143 2.857 13.714 9.714 10.857 21.714 17.143 30.286 14.857 136.571 13.714 46.857-0.571 77.143-7.429 11.429-2.857 19.143-7.714t11.714-13.714 6-18.286 2-26-0.571-31.429-1.429-40.286-0.857-47.143q0-6.286-0.571-24t-0.286-27.429 2-23.143 6.571-22.286 12.857-14q4.571-1.143 9.714-2.286t14.857 6.286 21.714 19.714 29.714 38.286 38.857 61.429q34.286 59.429 61.143 128.571 2.286 5.714 5.714 10t6.286 6l2.286 1.714 2.857 1.429t7.429 1.714 11.429 0.286l164.571 1.143q22.286 2.857 36.571-1.429t17.714-9.429l3.429-5.714q13.143-36.571-85.714-168-13.714-18.286-37.143-48.571-44.571-57.143-51.429-74.857-9.714-23.429 8-46.286 9.714-12 46.286-46.857h0.571l2.286-2.286q80.571-74.857 109.143-126.286 1.714-2.857 3.714-7.143t4-15.143-0.286-19.429-14.286-15.714-33.714-7.143l-146.286-2.286q-13.714-2.857-32 2.857t-29.714 12.571l-11.429 6.857q-17.143 12-40 36.571t-39.143 44.286-34.857 33.143-32.286 8.857q-1.714-0.571-4.571-2t-9.714-8.286-12.286-16.857-9.714-29.714-3.714-44.286q0-8.571-2-15.714t-4.286-10.571l-2.286-2.857q-10.286-10.857-30.286-12.571h-65.714q-40.571-2.286-83.429 9.429t-75.143 30.286-58.857 37.714-40.286 32.857l-14.286 13.714q-5.714 5.714-15.714 17.143t-40.857 52-60.571 86.286-70 120.571-74.571 155.429q-3.429 9.143-3.429 15.429z" />
<glyph unicode="&#xf18a;" glyph-name="weibo" d="M0 296.571q0 65.714 39.714 140t112.857 147.429q96.571 96.571 195.143 134.857t140.857-4q37.143-36.571 11.429-119.429-2.286-8-0.571-11.429t5.714-4 8.286 0.286 7.714 2l3.429 1.143q79.429 33.714 140.571 33.714t87.429-34.857q25.714-36 0-101.714-1.143-7.429-2.571-11.429t2.571-7.143 6.857-4.286 9.714-3.429q32.571-10.286 58.857-26.857t45.714-46.571 19.429-66.571q0-38.857-21.143-79.714t-62.286-78.286-96.286-67.143-129.143-47.429-154.571-17.714-157.143 19.143-137.429 53.143-98 86.286-37.143 114zM103.429 256q5.143-54.857 50.857-97.143t119.143-62.286 156.857-12q127.429 13.143 211.143 80.857t75.714 151.143q-5.143 54.857-50.857 97.143t-119.143 62.286-156.857 12q-127.429-13.143-211.143-80.857t-75.714-151.143zM236.286 204.857q-23.143 52.857 3.714 107.143 26.857 53.143 86.571 79.429t120.286 10.857q63.429-16.571 90.571-68.286t1.429-108.857q-25.714-58.286-90.286-85.714t-128-6.857q-61.143 19.429-84.286 72.286zM282.857 220.286q5.143-19.714 24.571-28.857t42.571-1.429 35.714 27.143q12 19.429 6.286 39.429t-25.714 28.571q-19.429 8-41.714 0.571t-34.286-26.286q-12.571-19.429-7.429-39.143zM402.857 301.143q-9.714-17.714 7.429-25.714 8-2.857 16.571 0.286t12.571 10.571q4.571 7.429 2 15.143t-10 10.571q-8 2.857-16.286-0.286t-12.286-10.571zM665.714 801.143q-3.429 16 5.429 29.429t24.857 16.857q70.286 14.857 139.429-6.571t118.857-76.857q49.714-54.857 64.286-127.143t-7.714-138q-5.143-15.429-19.429-22.857t-29.714-2.286-22.857 19.429-2.857 29.714q16 46.857 5.714 98.286t-45.714 90.286q-35.429 39.429-84.571 54.571t-98.857 4.857q-16-3.429-29.714 5.429t-17.143 24.857zM699.429 671.428q-2.857 13.714 4.571 25.429t21.143 14.571q34.286 7.429 68-3.143t57.714-37.429 31.143-62-3.714-67.143q-4.571-13.143-16.857-19.429t-25.429-2.286q-13.143 4.571-19.429 16.857t-2.286 25.429q11.429 36-13.714 63.429t-61.143 20q-13.714-2.857-25.714 4.571t-14.286 21.143z" />
<glyph unicode="&#xf194;" glyph-name="vimeo-square" d="M0 164.571v548.571q0 68 48.286 116.286t116.286 48.286h548.571q68 0 116.286-48.286t48.286-116.286v-548.571q0-68-48.286-116.286t-116.286-48.286h-548.571q-68 0-116.286 48.286t-48.286 116.286zM73.143 533.714q9.143-4.571 14.571-14.857t12.286-11.429q12-1.714 31.143 4.857t33.143 6 23.714-17.143q6.286-10.286 10.571-22t8.571-27.429 7.143-23.143q9.714-26.286 30.286-106.857 20.571-83.429 32.571-112.571 24-56.571 58.857-71.429 24.571-6.857 48.571-0.857t43.429 18q74.857 44 142.857 135.429 59.429 79.429 98.571 167.143t47.143 129.429q9.143 48.571-12 75.429-29.714 37.143-106.857 25.714-9.714-1.714-23.429-7.143t-32.857-17.429-36.857-27.714-34-40-25.429-52.286q45.714 4 64.857-9.143t15.143-56.571q-2.857-29.714-29.714-81.714-24.571-44.571-40.571-56.571-25.143-18.286-49.714 8-13.143 13.714-21.429 36.857t-10.857 41.714-5.714 48-4.857 40.857q-13.143 73.714-19.429 93.714-6.857 21.143-20.286 39.429t-28.857 22.857q-32.571 9.143-72.571-14.286-30.857-18.286-78-60.571t-70-58.286v-4z" />
<glyph unicode="&#xf1a1;" glyph-name="reddit" horiz-adv-x="1134" d="M0 485.714q0 53.714 37.714 91.429t91.429 37.714q47.429 0 84.571-31.429 141.714 90.286 338.286 93.714l76.571 241.714q2.286 8 10 12.286t16.286 2.571l198.286-46.857q12.571 28.571 39.143 46.286t58.571 17.714q44 0 75.143-31.143t31.143-75.143-31.143-75.429-75.143-31.429q-43.429 0-74.571 30.857t-31.714 74.857l-180 42.286-66.286-209.143q186.857-8 320-94.857 36.571 33.143 86.286 33.143 53.714 0 91.429-37.714t37.714-91.429q0-35.429-17.714-65.143t-47.429-46.857q2.857-18.857 2.857-34.857 0-69.143-39.143-131.714t-112.857-110.571q-71.429-46.857-163.143-71.714t-191.714-24.857q-100.571 0-192.286 24.857t-162.571 71.714q-73.714 48-112.857 110.286t-39.143 132q0 16.571 2.857 37.714-27.429 17.714-44 46.571t-16.571 62.571zM44 485.714q0-38.286 29.143-63.429 28 74.857 102.857 134.286-20.571 14.286-46.857 14.286-35.429 0-60.286-24.857t-24.857-60.286zM101.714 338.857q0-57.714 34-110.857t98-94.857q66.286-42.857 151.714-66t179.143-23.143 179.143 23.143 151.714 66q64 41.714 98 94.857t34 110.857-34 110.571-98 94.571q-66.286 42.857-151.714 66t-179.143 23.143-179.143-23.143-151.714-66q-64-41.714-98-94.571t-34-110.571zM317.143 400q0 32.571 23.714 56t55.714 23.429 55.143-23.429 23.143-56q0-32-23.143-54.857t-55.143-22.857q-32.571 0-56 22.857t-23.429 54.857zM377.714 192.857q0 9.429 6.286 15.714t15.429 6.286 15.429-6.286q44-44 151.429-44h1.143q107.429 0 151.429 44 6.286 6.286 15.429 6.286t15.429-6.286 6.286-15.714-6.286-15.714q-56.571-56.571-182.286-56.571h-1.143q-125.714 0-182.286 56.571-6.286 6.286-6.286 15.714zM658.857 400q0 32.571 23.714 56t55.714 23.429 55.143-23.429 23.143-56q0-32-23.143-54.857t-55.143-22.857q-32.571 0-56 22.857t-23.429 54.857zM888.571 844.571q0-25.714 18.286-44t44-18.286 44 18.286 18.286 44-18.286 44-44 18.286-44-18.286-18.286-44zM955.429 554.857q74.857-60 101.714-136 32.571 26.286 32.571 66.857 0 35.429-24.857 60.286t-60.286 24.857q-28 0-49.143-16z" />
<glyph unicode="&#xf1a5;" glyph-name="delicious" d="M0 164.571v548.571q0 68 48.286 116.286t116.286 48.286h548.571q68 0 116.286-48.286t48.286-116.286v-548.571q0-68-48.286-116.286t-116.286-48.286h-548.571q-68 0-116.286 48.286t-48.286 116.286zM36.571 438.857h402.286v-402.286h274.286q53.143 0 90.571 37.429t37.429 90.571v274.286h-402.286v402.286h-274.286q-53.143 0-90.571-37.429t-37.429-90.571v-274.286z" />
<glyph unicode="&#xf1a6;" glyph-name="digg" horiz-adv-x="1170" d="M0 228v398.286h187.429v163.429h116.571v-561.714h-304zM117.143 321.714h70.286v210.857h-70.286v-210.857zM350.857 228h117.143v398.286h-117.143v-398.286zM350.857 673.143h117.143v116.571h-117.143v-116.571zM514.857 88v93.143h187.429v46.857h-187.429v398.286h304.571v-538.286h-304.571zM632 321.714h70.286v210.857h-70.286v-210.857zM866.286 88v93.143h186.857v46.857h-186.857v398.286h304v-538.286h-304zM982.857 321.714h70.286v210.857h-70.286v-210.857z" />
<glyph unicode="&#xf1b4;" glyph-name="behance" horiz-adv-x="1170" d="M0 85.714v720h339.429q49.714 0 88.571-8t72.286-27.143 51.429-55.143 18-88q0-103.429-98.286-150.286 65.143-18.286 98.286-65.714t33.143-116.571q0-42.857-14-78t-37.714-59.143-56.286-40.571-69.143-24-76.571-7.429h-349.143zM158.286 208h169.143q117.143 0 117.143 95.429 0 102.857-113.714 102.857h-172.571v-198.286zM158.286 514.857h160.571q44.571 0 70.571 20.857t26 64.857q0 82.286-108.571 82.286h-148.571v-168zM649.714 345.714q0 118.857 74.571 197.429t192.286 78.571q78.857 0 137.429-38.857t87.429-102.286 28.857-141.714q0-9.714-1.143-26.857h-376q0-63.429 32.857-98t95.143-34.571q36 0 69.714 18.286t43.429 49.714h126.286q-57.143-175.429-244-175.429-122.286 0-194.571 75.429t-72.286 198.286zM764 686.286h292v70.857h-292v-70.857zM793.143 402.286h233.143q-10.286 111.429-114.286 111.429-51.429 0-83.429-30t-35.429-81.429z" />
<glyph unicode="&#xf1bd;" glyph-name="deviantart" d="M0 79.428v718.857q0 33.143 23.143 56.286t56.286 23.143h718.857q33.143 0 56.286-23.143t23.143-56.286v-718.857q0-33.143-23.143-56.286t-56.286-23.143h-718.857q-33.143 0-56.286 23.143t-23.143 56.286zM40.571 79.428q0-16 11.429-27.429t27.429-11.429h718.857q16 0 27.429 11.429t11.429 27.429v718.857q0 16-11.429 27.429t-27.429 11.429h-718.857q-16 0-27.429-11.429t-11.429-27.429v-718.857zM69.143 79.428v80.571l406.286 111.429-121.143 250.857q2.286 0.571 6.857 1.429t6.857 0.857q97.143 18.286 173.429 12.286t126.286-26.286 82-54q15.429-16-14.286-24-36.571-9.143-146.286-35.429l-55.429 113.143q-63.429 4-137.143-9.143l107.429-221.143 304.571 82.857v-283.429q0-4-3.143-7.143t-7.143-3.143h-718.857q-4 0-7.143 3.143t-3.143 7.143zM69.143 478.286v320q0 4 3.143 7.143t7.143 3.143h718.857q4 0 7.143-3.143t3.143-7.143v-244.571q-48.571 17.143-107.429 29.714-168 36.571-368.571 6.857l-10.286-1.714-37.143 76.571h-133.143l48.571-108.571q-75.429-29.143-131.429-78.286zM140.571 309.143q-13.714 116 94.857 174.286l73.714-154.286-145.714-34.857q-8-1.714-14.857 2.571t-8 12.286z" />
<glyph unicode="&#xf1be;" glyph-name="soundcloud" horiz-adv-x="1317" d="M448 166.857l9.143 137.714-9.143 298.857q-0.571 5.714-4.286 9.714t-9.429 4q-5.143 0-9.143-4t-4-9.714l-8-298.857 8-137.714q0.571-5.714 4.286-9.429t8.857-3.714q12.571 0 13.714 13.143zM617.143 183.428l6.286 120.571-6.857 334.857q0 9.143-7.429 13.714-4.571 2.857-9.143 2.857t-9.143-2.857q-7.429-4.571-7.429-13.714l-0.571-3.429-5.714-330.857q0-0.571 6.286-134.857v-0.571q0-5.714 3.429-9.714 5.143-6.286 13.143-6.286 6.286 0 11.429 5.143 5.143 4 5.143 11.429zM20 377.714l11.429-73.143-11.429-72q-1.143-5.143-5.143-5.143t-5.143 5.143l-9.714 72 9.714 73.143q1.143 5.143 5.143 5.143t5.143-5.143zM69.143 422.857l14.857-118.286-14.857-116q-1.143-5.143-5.714-5.143-5.143 0-5.143 5.714l-13.143 115.429 13.143 118.286q0 5.143 5.143 5.143 4.571 0 5.714-5.143zM121.714 444.571l14.286-140-14.286-135.429q0-6.286-6.286-6.286-5.714 0-6.857 6.286l-12 135.429 12 140q1.143 6.857 6.857 6.857 6.286 0 6.286-6.857zM175.429 448.571l13.143-144-13.143-139.429q-1.143-7.429-8-7.429-7.429 0-7.429 7.429l-12 139.429 12 144q0 7.429 7.429 7.429 6.857 0 8-7.429zM229.143 438.286l12-133.714-12-140.571q-1.143-9.143-9.143-9.143-3.429 0-6 2.571t-2.571 6.571l-11.429 140.571 11.429 133.714q0 3.429 2.571 6t6 2.571q8 0 9.143-8.571zM282.857 521.714l12-217.143-12-140.571q0-4-2.857-7.143t-6.857-3.143q-9.143 0-10.286 10.286l-10.286 140.571 10.286 217.143q1.143 10.286 10.286 10.286 4 0 6.857-3.143t2.857-7.143zM336.571 570.857l10.857-267.429-10.857-139.429q0-4.571-3.143-7.714t-7.714-3.143q-10.286 0-11.429 10.857l-9.143 139.429 9.143 267.429q1.143 10.857 11.429 10.857 4.571 0 7.714-3.143t3.143-7.714zM392.571 593.714l10.286-289.143-10.286-138.286q-1.143-12-12.571-12-10.857 0-12 12l-9.143 138.286 9.143 289.143q0 5.143 3.714 8.857t8.286 3.714q5.143 0 8.571-3.714t4-8.857zM616.571 169.714v0 0zM503.429 596l8.571-291.429-8.571-136.571q0-5.714-4.286-10t-10-4.286-9.714 4-4.571 10.286l-8 136.571 8 291.429q0 6.286 4.286 10.286t10 4 10-4 4.286-10.286zM560 585.143l8-281.143-8-134.857q0-6.286-4.571-10.857t-10.857-4.571-10.857 4.571-5.143 10.857l-6.857 134.857 6.857 281.143q0.571 6.857 5.143 11.429t10.857 4.571 10.571-4.571 4.857-11.429zM681.143 304l-8-132q0-7.429-5.143-12.571t-12.571-5.143-12.571 5.143-5.714 12.571l-3.429 65.143-3.429 66.857 6.857 363.429v1.714q1.143 8.571 6.857 13.714 5.143 4 11.429 4 4.571 0 8.571-2.857 8-4.571 9.143-14.857zM1316.571 314.857q0-66.857-47.429-114t-114.286-47.143h-449.143q-7.429 1.143-12.571 6.286t-5.143 12.571v513.714q0 13.143 16 18.857 48.571 19.429 103.429 19.429 111.429 0 193.143-75.143t91.429-184.857q30.286 12.571 62.857 12.571 66.857 0 114.286-47.429t47.429-114.857z" />
<glyph unicode="&#xf1d7;" glyph-name="wechat, weixin" horiz-adv-x="1170" d="M331.429 687.428q0 23.429-14.286 37.714t-37.714 14.286q-24.571 0-43.429-14.571t-18.857-37.429q0-22.286 18.857-36.857t43.429-14.571q23.429 0 37.714 14t14.286 37.429zM756 397.714q0 16-14.571 28.571t-37.429 12.571q-15.429 0-28.286-12.857t-12.857-28.286q0-16 12.857-28.857t28.286-12.857q22.857 0 37.429 12.571t14.571 29.143zM621.143 687.428q0 23.429-14 37.714t-37.429 14.286q-24.571 0-43.429-14.571t-18.857-37.429q0-22.286 18.857-36.857t43.429-14.571q23.429 0 37.429 14t14 37.429zM984 397.714q0 16-14.857 28.571t-37.143 12.571q-15.429 0-28.286-12.857t-12.857-28.286q0-16 12.857-28.857t28.286-12.857q22.286 0 37.143 12.571t14.857 29.143zM832 624.571q-17.714 2.286-40 2.286-96.571 0-177.714-44t-127.714-119.143-46.571-164.286q0-44.571 13.143-86.857-20-1.714-38.857-1.714-14.857 0-28.571 0.857t-31.429 3.714-25.429 4-31.143 6-28.571 6l-144.571-72.571 41.143 124.571q-165.714 116-165.714 280 0 96.571 55.714 177.714t150.857 127.714 207.714 46.571q100.571 0 190-37.714t149.714-104.286 78-148.857zM1170.286 304q0-66.857-39.143-127.714t-106-110.571l31.429-103.429-113.714 62.286q-85.714-21.143-124.571-21.143-96.571 0-177.714 40.286t-127.714 109.429-46.571 150.857 46.571 150.857 127.714 109.429 177.714 40.286q92 0 173.143-40.286t130-109.714 48.857-150.571z" />
<glyph unicode="&#xf1ed;" glyph-name="paypal" horiz-adv-x="882" d="M868 581.714q10.286-48-2.286-116.571-49.714-253.714-322.857-253.714h-25.143q-14.286 0-25.143-9.429t-13.714-24.286l-2.286-10.857-31.429-197.714-1.143-8.571q-2.857-14.857-14-24.286t-25.429-9.429h-143.429q-12 0-18.857 8.571t-5.143 20.571q5.143 32 15.143 96t15.143 96 15.429 95.714 15.429 95.714q2.857 21.143 24.571 21.143h74.857q76-1.143 134.857 12 100 22.286 164 82.286 58.286 54.286 88.571 140.571 13.714 40 20 76 0.571 3.429 1.429 4.286t2 0.571 3.429-2q45.143-33.714 56-92.571zM769.714 742.857q0-61.143-26.286-134.857-45.714-133.143-172.571-180-64.571-22.857-144-24 0-0.571-51.429-0.571l-51.429 0.571q-57.143 0-67.429-54.857-1.143-4.571-48.571-302.857-0.571-5.714-6.857-5.714h-168.571q-12.571 0-20.857 9.429t-6.571 22l132.571 840.571q2.857 16.571 15.714 27.429t29.429 10.857h341.714q19.429 0 55.714-7.429t63.714-18.286q61.143-23.429 93.429-70.286t32.286-112z" />
<glyph unicode="&#xf1ee;" glyph-name="google-wallet" horiz-adv-x="1041" d="M252 566.857q18.286 0 29.714-14.857 152-208 206.857-442.286h-254.857q-72.571 252-209.714 428-6.857 9.143-1.714 19.143t16.571 10h213.143zM571.429 362.857q-28-113.714-71.429-224.571-45.143 177.143-146.286 339.429 22.857 126.286 25.143 256.571 120.571-194.286 192.571-371.429zM628 768q134.286-185.143 219.714-399.143t105.429-442h-257.714q-23.429 380-316 841.143h248.571zM1024 438.857q0-242.286-57.714-464-38.286 320-205.143 618.857-14.286 172-60.571 333.714-2.286 9.143 3.143 16.286t14.571 7.143h205.143q12 0 22-7.429t12.857-18.857q65.714-233.714 65.714-485.714z" />
<glyph unicode="&#xf1f0;" glyph-name="cc-visa" horiz-adv-x="1317" d="M1128.571 385.143h-78.857q8 21.143 37.714 102.286l1.714 5.143q2.286 5.714 5.714 14.857t5.143 14.857l6.857-31.429zM303.429 422.286l-33.143 168.571q-6.286 30.857-42.857 30.857h-153.143l-1.143-7.429q177.714-45.143 230.286-192zM405.714 621.714l-92.571-250.286-9.714 50.857q-14.857 40-48.571 74t-74.857 50.571l77.143-291.429h100l149.143 366.286h-100.571zM485.143 254.857h94.857l59.429 366.857h-94.857zM924 612.571q-39.429 15.429-85.143 15.429-70.286 0-114.857-33.714t-45.143-87.429q-0.571-58.286 82.857-99.429 27.429-13.143 38.286-23.429t10.857-22.286q0-17.143-17.143-26.286t-39.429-9.143q-49.143 0-89.143 18.857l-12.571 6.286-13.143-82.286q42.286-19.429 105.714-19.429 74.286-0.571 119.143 33.714t46 91.429q0 60.571-80 99.429-28 14.286-40.571 24t-12.571 21.714q0 12.571 14 22t40.286 9.429q40 0.571 70.857-13.714l8.571-4.571zM1166.857 621.714h-73.143q-37.143 0-49.714-30.857l-140.571-336h99.429l20 54.857h121.143q2.857-12.571 11.429-54.857h88zM1316.571 804.571v-731.429q0-29.714-21.714-51.429t-51.429-21.714h-1170.286q-29.714 0-51.429 21.714t-21.714 51.429v731.429q0 29.714 21.714 51.429t51.429 21.714h1170.286q29.714 0 51.429-21.714t21.714-51.429z" />
<glyph unicode="&#xf1f1;" glyph-name="cc-mastercard" horiz-adv-x="1317" d="M383.429 417.714h-7.429q-26.857 0-26.857-18.286 0-12.571 11.429-12.571 9.714 0 16 8.571t6.857 22.286zM609.143 438.286h35.429v1.714q0.571 2.286 0.286 3.714t-0.571 4-1.143 4.571-2.571 3.714-4.286 2.857-6.571 1.143q-16 0-20.571-21.714zM917.714 417.714h-6.857q-27.429 0-27.429-18.286 0-12.571 11.429-12.571 9.714 0 16 8.571t6.857 22.286zM1100 432.571q0 23.429-17.143 23.429-10.857 0-17.714-11.429t-6.857-29.143q0-24 16-24 11.429 0 18.571 11.429t7.143 29.714zM274.286 513.143h49.714l-25.143-149.714h-32l18.286 114.857-40.571-114.857h-22.286l-2.286 114.286-19.429-114.286h-30.286l25.143 149.714h46.286l1.143-93.143zM418.857 452q0-3.429-2.286-24-9.143-57.714-9.714-64.571h-26.857l0.571 12.571q-11.429-14.857-33.143-14.857-13.143 0-21.429 9.143t-8.286 24q0 22.286 14.857 34.571t41.714 12.286q8 0 13.143-0.571 0 1.714 0.286 3.143t0.571 2.571 0.286 1.714q0 11.429-20.571 11.429-16.571 0-33.714-5.714 0 2.286 4 27.429 21.714 6.286 38.286 6.286 42.286 0 42.286-35.429zM508 485.143l-4.571-28q-12.571 1.714-23.429 1.714-15.429 0-15.429-9.714 0-4.571 2.571-6.857t12.286-6.286q22.857-10.857 22.857-34.286 0-41.143-49.714-40.571-19.429 0-33.143 3.429 0 1.143 4 28 16.571-4.571 29.143-4.571 18.286 0 18.286 10.857 0 4-2.571 6.571t-12.286 7.143q-24.571 11.429-24.571 33.714 0 41.143 48 41.143 17.143 0 28.571-2.286zM558.286 485.143h16l-4-29.714h-16.571q-1.143-9.714-3.714-23.143t-4-22-1.429-10.286q0-9.143 10.857-9.143 4.571 0 9.143 1.143l-4.571-26.857q-12-4-22.857-4-24.571 0-25.714 26.857 0 6.857 4.571 32 1.714 11.429 14.286 83.429h31.429zM674.286 443.428q0-13.143-4-29.714h-63.429q-1.714-12.571 5.714-18.857t21.714-6.286q17.143 0 33.143 8l-5.143-30.857q-17.143-4.571-32.571-4.571-54.286 0-54.286 54.286 0 31.429 15.714 51.714t39.714 20.286q20 0 31.714-12t11.714-32zM753.714 485.714q-7.429-13.143-12.571-35.429-12.571 1.143-17.714-13.714t-14.286-73.143h-32l1.714 8q12.571 74.286 16.571 113.714h29.143l-1.714-18.857q8 12 14.571 16.857t16.286 2.571zM860.571 509.143l-5.143-32.571q-16 8-28.571 8-17.714 0-29.143-15.714t-11.429-40.286q0-17.143 7.714-26.857t22-9.714q12 0 27.429 7.429l-5.714-33.714q-16-4.571-28.571-4.571-25.714 0-40.857 17.429t-15.143 47.143q0 40 20.286 65.429t52.286 25.429q14.857 0 34.857-7.429zM953.143 452q0-10.286-2.286-24-7.429-45.143-9.714-64.571h-26.286l0.571 12.571q-11.429-14.857-33.714-14.857-13.143 0-21.143 9.143t-8 24q0 22.286 14.571 34.571t41.429 12.286q8.571 0 13.143-0.571 1.143 4 1.143 7.429 0 11.429-20.571 11.429-16.571 0-33.714-5.714 0 2.286 4.571 27.429 21.714 6.286 38.286 6.286 41.714 0 41.714-35.429zM1033.714 485.714q-8-13.714-12-35.429-13.143 1.143-18-13.143t-14.571-73.714h-32l1.714 8q10.857 59.429 16.571 113.714h29.714q0-6.286-2.286-18.857 8.571 12 15.143 16.857t15.714 2.571zM1114.286 513.143h32l-24.571-149.714h-30.286l1.714 10.857q-13.143-13.143-29.714-13.143-17.714 0-28.286 13.714t-10.571 36.571q0 30.286 15.714 52.571t36.857 22.286q17.714 0 30.286-16.571zM1177.714 438.857q0 84.571-41.429 156t-113.143 113.143-156.286 41.714q-103.429 0-187.429-62.857 72.571-66.286 97.714-162.286h-28.571q-25.143 85.714-90.286 144.571-65.143-58.857-90.286-144.571h-28.571q25.143 96 97.714 162.286-84 62.857-187.429 62.857-84.571 0-156.286-41.714t-113.143-113.143-41.429-156 41.429-156 113.143-113.143 156.286-41.714q103.429 0 187.429 62.857-68.571 63.429-94.286 150.857h28.571q26.286-78.857 86.857-133.143 60.571 54.286 86.857 133.143h28.571q-25.714-87.429-94.286-150.857 84-62.857 187.429-62.857 84.571 0 156.286 41.714t113.143 113.143 41.429 156zM1316.571 804.571v-731.429q0-29.714-21.714-51.429t-51.429-21.714h-1170.286q-29.714 0-51.429 21.714t-21.714 51.429v731.429q0 29.714 21.714 51.429t51.429 21.714h1170.286q29.714 0 51.429-21.714t21.714-51.429z" />
<glyph unicode="&#xf1f2;" glyph-name="cc-discover" horiz-adv-x="1317" d="M178.857 506.857q0-29.143-20.571-48-16.571-14.857-50.857-14.857h-9.714v125.714h9.714q34.857 0 50.857-15.429 20.571-17.714 20.571-47.429zM1193.714 544q0-29.714-36.571-29.714h-10.857v57.714h11.429q36 0 36-28zM217.143 506.857q0 42.286-28.571 68.857t-73.714 26.571h-54.286v-190.286h54.286q42.286 0 68 21.714 34.286 29.143 34.286 73.143zM234.286 412h37.143v190.286h-37.143v-190.286zM417.143 469.714q0 22.857-11.714 35.429t-43.143 24q-16.571 5.714-22.571 10.857t-6 13.143q0 9.143 7.714 15.143t19.714 6q16.571 0 30.286-15.429l19.429 25.143q-23.429 21.143-56 21.143-25.143 0-42.286-15.714t-17.143-38.571q0-20 10.286-31.714t36.571-20.857q21.143-7.429 25.714-10.857 10.857-6.857 10.857-19.429 0-11.429-8-19.143t-20.571-7.714q-27.429 0-40.571 25.143l-24-22.857q25.143-36.571 65.714-36.571 29.143 0 47.429 17.429t18.286 45.429zM576 418.286v44q-21.143-21.143-44.571-21.143-28 0-46 18.571t-18 47.143q0 27.429 18 46.571t44.286 19.143q24.571 0 46.286-21.714v44q-22.857 11.429-45.714 11.429-42.286 0-71.714-28.857t-29.429-70.571 29.143-70.571 71.429-28.857q24 0 46.286 10.857zM1280 73.143v301.143q-37.143-22.857-82.571-48t-135.714-66.857-188.286-78.571-238.571-76.857-288-67.429h896.571q14.857 0 25.714 10.857t10.857 25.714zM793.714 505.714q0 42.857-30.286 73.143t-73.143 30.286-73.143-30.286-30.286-73.143 30.286-73.143 73.143-30.286 73.143 30.286 30.286 73.143zM880.571 406.857l82.286 195.429h-40.571l-51.429-128-50.857 128h-40.571l81.143-195.429h20zM979.429 412h105.143v32h-68v51.429h65.714v32h-65.714v42.286h68v32.571h-105.143v-190.286zM1202.857 412h45.714l-60 80q43.429 9.143 43.429 53.714 0 26.857-17.714 41.714t-49.714 14.857h-55.429v-190.286h37.143v76h5.143zM1316.571 801.143v-724.571q0-32-22-54.286t-53.429-22.286h-1165.714q-31.429 0-53.429 22.286t-22 54.286v724.571q0 32 22 54.286t53.429 22.286h1165.714q31.429 0 53.429-22.286t22-54.286z" />
<glyph unicode="&#xf1f3;" glyph-name="cc-amex" horiz-adv-x="1317" d="M68 561.143h50.857l-25.714 61.714zM422.857 260.571l42.286 45.143-40 45.143h-93.143v-28h81.143v-31.429h-81.143v-30.857h90.857zM513.143 305.143l56.571-62.857v124zM677.714 332q0 18.857-22.857 18.857h-48v-39.429h47.429q23.429 0 23.429 20.571zM842.857 334.286q0 16.571-24 16.571h-46.857v-34.857h46.286q24.571 0 24.571 18.286zM684 600.571q0 16.571-24 16.571h-46.857v-34.286h46.286q24.571 0 24.571 17.714zM946.286 561.143h50.857l-25.143 61.714zM399.429 649.714v-154.857h-37.714v121.143l-53.714-121.143h-32.571l-53.714 121.143v-121.143h-75.429l-14.286 34.286h-77.143l-14.286-34.286h-40l66.286 154.857h54.857l62.857-146.857v146.857h60.571l48.571-105.143 44 105.143h61.714zM717.143 332q0-11.429-3.143-20t-8-14.286-12.857-9.429-14.857-5.714-18-2.571-18-0.571-18.571 0.286-16.857 0.286v-52h-72l-45.714 51.429-47.429-51.429h-146.286v154.857h148.571l45.714-50.857 46.857 50.857h118.286q62.286 0 62.286-50.857zM550.857 526.857v-32h-124v154.857h124v-32.571h-86.857v-28h84.571v-31.429h-84.571v-30.857h86.857zM1316.571 207.428v-130.857q0-31.429-22-54t-53.429-22.571h-1165.714q-31.429 0-53.429 22.571t-22 54v387.429h63.429l14.286 34.857h31.429l14.286-34.857h124.571v26.286l10.857-26.286h64.571l11.429 26.857v-26.857h309.143v56.571l5.714 0.571q5.714 0 5.714-8v-49.143h159.429v13.143q13.143-6.857 31.429-10.286t30-3.714 36 0.286 29.429 0.571l14.286 34.857h32l14.286-34.857h129.714v33.143l19.429-33.143h104v216h-102.857v-25.143l-14.286 25.143h-105.714v-25.143l-13.143 25.143h-142.286q-39.429 0-62.286-12.571v12.571h-98.286v-12.571q-13.714 12.571-41.714 12.571h-358.857l-24.571-55.429-24.571 55.429h-113.143v-25.143l-12.571 25.143h-96.571l-44.571-102.286v223.429q0 31.429 22 54t53.429 22.571h1165.714q31.429 0 53.429-22.571t22-54v-387.429h-68.571q-29.143 0-46.286-12.571v12.571h-101.143q-31.429 0-44.571-12.571v12.571h-180.571v-12.571q-17.714 12.571-49.714 12.571h-119.429v-12.571q-13.143 12.571-52 12.571h-133.714l-30.857-33.143-28.571 33.143h-199.429v-216h196l31.429 33.714 29.714-33.714h120.571v50.857h12q33.714 0 51.429 7.429v-58.286h99.429v56.571h4.571q4.571 0 5.714-1.143t1.143-5.714v-49.714h302.286q32.571 0 50.286 13.714v-13.714h96q34.286 0 54.286 9.714zM883.429 341.143q0-13.143-6.857-24.571t-19.429-16.571q14.286-5.143 19.429-14.857t5.143-26.286v-30.857h-37.143v25.714q0 18.857-6.857 24.857t-26.286 6h-39.429v-56.571h-37.143v154.857h88q27.429 0 44-8.571t16.571-33.143zM725.143 608q0-13.714-7.143-25.143t-19.143-16.571q14.857-5.143 19.714-14.571t4.857-26.571v-30.286h-37.143q0 5.143 0.286 15.143t0 14.286-1.714 10.571-4.857 9.143-10 4.857-16.857 2h-40v-56h-36.571v154.857l87.429-0.571q28 0 44.571-8.286t16.571-32.857zM1027.429 260v-32h-123.429v154.857h123.429v-32h-86.286v-28h84.571v-31.429h-84.571v-30.857zM784 649.714v-154.857h-37.714v154.857h37.714zM1180 277.143q0-49.143-58.286-49.143h-72v33.143h72q19.429 0 19.429 14.286 0 9.143-9.714 12t-23.714 2.857-28.286 2-24 12.857-9.714 31.429q0 22.286 14.857 34.286t37.714 12h74.286v-32.571h-68q-20.571 0-20.571-14.286 0-9.143 10-11.714t24-2.286 28-1.429 24-12.286 10-31.143zM1316.571 305.714v-57.714q-13.714-20-50.286-20h-71.429v33.143h71.429q18.857 0 18.857 14.286 0 7.429-7.143 10.857t-17.714 3.143-22.857 1.143-22.857 4.571-17.714 13.714-7.143 27.714q0 22.286 15.143 34.286t38 12h73.714v-32.571h-67.429q-20.571 0-20.571-14.286 0-11.429 16.571-12.571t39.143-2.857 32.286-14.857zM1222.286 649.143v-154.286h-52.571l-69.714 116v-116h-75.429l-14.857 34.286h-76.571l-14.286-34.286h-42.857q-73.714 0-73.714 76 0 78.857 76 78.857h36v-33.714q-4 0-16 0.571t-16.286 0.286-13.143-1.143-12.286-3.714-8.286-7.714-6.571-13.143-1.714-19.143q0-21.714 7.714-33.143t28.286-11.429h16.571l52.571 121.714h55.429l62.286-146.286v146.286h56.571l65.143-107.429v107.429h37.714z" />
<glyph unicode="&#xf1f4;" glyph-name="cc-paypal" horiz-adv-x="1317" d="M425.714 433.143q0-21.143-14.571-35.143t-35.714-14q-16.571 0-26.571 9.143t-10 25.143q0 21.143 14.286 35.714t35.429 14.571q16 0 26.571-9.429t10.571-26zM874.286 518.286q0-24-12.571-32.571t-37.714-8.571l-18.286-0.571 9.714 61.143q1.143 6.286 7.429 6.286h10.286q12.571 0 20-1.143t14.286-7.143 6.857-17.429zM1074.857 433.143q0-20.571-14.571-34.857t-35.143-14.286q-16.571 0-26.857 9.143t-10.286 25.143q0 21.143 14.286 35.714t35.429 14.571q16 0 26.571-9.429t10.571-26zM293.143 530.857q0 33.714-22 48.857t-57.429 15.143h-91.429q-10.857 0-12-10.857l-37.143-233.143q-0.571-3.429 1.714-6.286t5.714-2.857h43.429q11.429 0 12.571 10.857l10.286 62.857q0.571 4.571 4 7.429t8.571 3.714 9.714 0.857 10.857-0.571 8-0.571q49.143 0 77.143 27.714t28 76.857zM469.714 352.571l23.429 149.143q0.571 3.429-1.714 6.286t-5.714 2.857h-43.429q-8 0-9.714-18.857-15.429 22.857-54.286 22.857-41.143 0-70-30.857t-28.857-72.571q0-33.714 19.714-53.714t52.857-20q16 0 33.143 6.857t27.429 18.286q-2.286-6.857-2.286-12 0-9.143 7.429-9.143h39.429q10.857 0 12.571 10.857zM725.143 502.857q0 2.857-2.286 5.429t-5.143 2.571h-44q-6.286 0-10.286-5.714l-60.571-89.143-25.143 85.714q-2.857 9.143-12.571 9.143h-42.857q-2.857 0-5.143-2.571t-2.286-5.429q0-1.143 11.143-33.714t24-70.286 13.429-40q-46.857-64-46.857-68.571 0-7.429 7.429-7.429h44q6.286 0 10.286 5.714l145.714 210.286q1.143 1.143 1.143 4zM942.286 530.857q0 33.714-22 48.857t-57.429 15.143h-90.857q-11.429 0-12.571-10.857l-37.143-233.143q-0.571-3.429 1.714-6.286t5.714-2.857h46.857q6.857 0 9.143 7.429l10.286 66.286q0.571 4.571 4 7.429t8.571 3.714 9.714 0.857 10.857-0.571 8-0.571q49.143 0 77.143 27.714t28 76.857zM1118.857 352.571l23.429 149.143q0.571 3.429-1.714 6.286t-5.714 2.857h-43.429q-8 0-9.714-18.857-14.857 22.857-54.286 22.857-41.143 0-70-30.857t-28.857-72.571q0-33.714 19.714-53.714t52.857-20q16.571 0 33.714 6.857t26.857 18.286q0-0.571-1.143-5.143t-1.143-6.857q0-9.143 7.429-9.143h39.429q10.857 0 12.571 10.857zM1243.429 586.286v0.571q0 8-7.429 8h-42.286q-6.286 0-7.429-6.286l-37.143-237.714-0.571-1.143q0-2.857 2.286-5.429t5.714-2.571h37.714q10.857 0 12 10.857zM224 509.714q-2.857-20-14.857-26.286t-34.286-6.286l-18.857-0.571 9.714 61.143q1.143 6.286 7.429 6.286h10.857q22.857 0 33.143-6.571t6.857-27.714zM1316.571 804.571v-731.429q0-29.714-21.714-51.429t-51.429-21.714h-1170.286q-29.714 0-51.429 21.714t-21.714 51.429v731.429q0 29.714 21.714 51.429t51.429 21.714h1170.286q29.714 0 51.429-21.714t21.714-51.429z" />
<glyph unicode="&#xf1f5;" glyph-name="cc-stripe" horiz-adv-x="1317" d="M912.571 434.857q0-39.429-12-60.571-10.857-20-29.714-20-13.143 0-23.429 5.143v128q16.571 17.143 32.571 17.143 32.571 0 32.571-69.714zM1162.857 455.428h-62.857q3.429 56 32 56 29.143 0 30.857-56zM272 378.286q0 33.714-18.857 52.286t-57.714 32.857q-20.571 7.429-29.714 13.714t-9.143 14.286q0 14.857 21.714 14.857 33.143 0 70.857-18.857l10.286 64q-38.286 18.286-85.143 18.286-44 0-70.286-21.714-27.429-22.286-27.429-62.286 0-33.143 18.571-51.714t56.857-32.286q22.286-8 31.143-14.571t8.857-15.714q0-17.714-27.429-17.714-16.571 0-40 7.143t-41.143 17.429l-10.286-64.571q41.143-23.429 96-23.429 46.286 0 73.714 21.143 29.143 23.429 29.143 66.857zM440.571 501.143l10.857 63.429h-54.857v77.143l-73.714-12-10.286-65.143-26.286-4.571-9.714-58.857h35.429v-125.143q0-48 25.143-68.571 21.714-17.143 63.429-17.143 18.286 0 45.143 6.286v67.429q-18.286-4-25.143-4-24 0-24 28.571v112.571h44zM621.143 486.857v79.429q-8.571 1.714-16 1.714-18.286 0-31.714-9.143t-19.143-26.286l-5.714 32h-74.857v-269.143h85.714v174.857q14.857 17.714 46.857 17.714 9.143 0 14.857-1.143zM642.286 295.428h85.714v269.143h-85.714v-269.143zM997.714 437.714q0 69.714-25.714 102.286-22.857 29.714-63.429 29.714-36.571 0-66.857-32l-4.571 26.857h-75.429v-368.571l85.714 14.286v86.286q20.571-6.286 38.857-6.286 47.429 0 76.571 32 34.857 37.143 34.857 115.429zM730.286 636.571q0 18.857-13.143 32t-32 13.143-32-13.143-13.143-32 13.143-32.286 32-13.429 32 13.429 13.143 32.286zM1243.429 432.571q0 64.571-27.429 100.571-28.571 36.571-82.286 36.571-54.857 0-86.571-37.714t-31.714-102.857q0-73.143 36-107.429 31.429-31.429 92-31.429 57.714 0 91.429 22.857l-9.143 58.857q-32.571-17.714-73.143-17.714-24.571 0-36 10.857-13.143 10.857-16 37.714h141.714q1.143 8 1.143 29.714zM1316.571 804.571v-731.429q0-29.714-21.714-51.429t-51.429-21.714h-1170.286q-29.714 0-51.429 21.714t-21.714 51.429v731.429q0 29.714 21.714 51.429t51.429 21.714h1170.286q29.714 0 51.429-21.714t21.714-51.429z" />
<glyph unicode="&#xf231;" glyph-name="pinterest-p" horiz-adv-x="731" d="M0 609.714q0 61.714 21.429 116.286t59.143 95.143 86.857 70.286 105.714 44.571 115.429 14.857q90.286 0 168-38t126.286-110.571 48.571-164q0-54.857-10.857-107.429t-34.286-101.143-57.143-85.429-82.857-58.857-108-22q-38.857 0-77.143 18.286t-54.857 50.286q-5.714-22.286-16-64.286t-13.429-54.286-11.714-40.571-14.857-40.571-18.286-35.714-26.286-44.286-35.429-49.429l-8-2.857-5.143 5.714q-8.571 89.714-8.571 107.429 0 52.571 12.286 118t38 164.286 29.714 116q-18.286 37.143-18.286 96.571 0 47.429 29.714 89.143t75.429 41.714q34.857 0 54.286-23.143t19.429-58.571q0-37.714-25.143-109.143t-25.143-106.857q0-36 25.714-59.714t62.286-23.714q31.429 0 58.286 14.286t44.857 38.857 32 54.286 21.714 63.143 11.429 63.429 3.714 56.857q0 98.857-62.571 154t-163.143 55.143q-114.286 0-190.857-74t-76.571-187.714q0-25.143 7.143-48.571t15.429-37.143 15.429-26 7.143-17.429q0-16-8.571-41.714t-21.143-25.714q-1.143 0-9.714 1.714-29.143 8.571-51.714 32t-34.857 54-18.571 61.714-6.286 60.857z" />
<glyph unicode="&#xf232;" glyph-name="whatsapp" horiz-adv-x="878" d="M562.857 394.286q7.429 0 55.714-25.143t51.143-30.286q1.143-2.857 1.143-8.571 0-18.857-9.714-43.429-9.143-22.286-40.571-37.429t-58.286-15.143q-32.571 0-108.571 35.429-56 25.714-97.143 67.429t-84.571 105.714q-41.143 61.143-40.571 110.857v4.571q1.714 52 42.286 90.286 13.714 12.571 29.714 12.571 3.429 0 10.286-0.857t10.857-0.857q10.857 0 15.143-3.714t8.857-15.714q4.571-11.429 18.857-50.286t14.286-42.857q0-12-19.714-32.857t-19.714-26.571q0-4 2.857-8.571 19.429-41.714 58.286-78.286 32-30.286 86.286-57.714 6.857-4 12.571-4 8.571 0 30.857 27.714t29.714 27.714zM446.857 91.428q72.571 0 139.143 28.571t114.571 76.571 76.571 114.571 28.571 139.143-28.571 139.143-76.571 114.571-114.571 76.571-139.143 28.571-139.143-28.571-114.571-76.571-76.571-114.571-28.571-139.143q0-116 68.571-210.286l-45.143-133.143 138.286 44q90.286-59.429 197.143-59.429zM446.857 881.143q87.429 0 167.143-34.286t137.429-92 92-137.429 34.286-167.143-34.286-167.143-92-137.429-137.429-92-167.143-34.286q-111.429 0-208.571 53.714l-238.286-76.571 77.714 231.429q-61.714 101.714-61.714 222.286 0 87.429 34.286 167.143t92 137.429 137.429 92 167.143 34.286z" />
<glyph unicode="&#xf24b;" glyph-name="cc-jcb" horiz-adv-x="1317" d="M1114.857 380.571q0-14.857-8.857-25.429t-22-13.429q-4.571-1.143-10.286-1.143h-87.429v80h87.429q5.714 0 10.286-1.143 13.143-2.857 22-13.429t8.857-25.429zM1104.571 502.286q0-14.286-8.571-24t-21.714-12q-1.714-0.571-8.571-0.571h-79.429v73.714h79.429q1.714 0 4.857-0.286t3.714-0.286q13.143-2.286 21.714-12.286t8.571-24.286zM416 408.571v176h-130.286v-176q0-33.143-21.714-54t-60-20.857q-61.714 0-130.857 33.714v-64q30.286-8.571 69.143-13.143t62.286-5.143l24-0.571q187.429 0 187.429 124zM824 303.428v64.571q-56.571-29.714-114.286-33.714-61.714-4.571-96.571 23.429t-34.857 81.143 34.857 81.143 96.571 23.429q57.714-4 114.286-33.143v64q-27.429 6.857-57.143 11.143t-45.714 5.429l-16 1.143q-72.571 3.429-124.857-8t-80.286-34.286-40.571-50.286-12.571-60.571 12.571-60.571 40.571-50.286 80.286-34.286 124.857-8q57.714 2.286 118.857 17.714zM1243.429 369.143q0 30.857-24.571 50.571t-62.286 22.571v1.714q32.571 4.571 50.857 23.714t18.286 45.429q0 31.429-23.429 50.286t-61.143 20.571q-1.714 0-6.857 0.286t-8 0.286h-260v-291.429h280.571q42.286 0 69.429 20.857t27.143 55.143zM1316.571 804.571v-731.429q0-29.714-21.714-51.429t-51.429-21.714h-1170.286q-29.714 0-51.429 21.714t-21.714 51.429v731.429q0 29.714 21.714 51.429t51.429 21.714h1170.286q29.714 0 51.429-21.714t21.714-51.429z" />
<glyph unicode="&#xf24c;" glyph-name="cc-diners-club" horiz-adv-x="1317" d="M490.286 241.714v396q-60.571-23.429-98.286-77.429t-37.714-120.857 37.714-120.857 98.286-76.857zM778.286 439.428q0 66.857-37.714 120.857t-98.286 77.429v-396.571q60.571 23.429 98.286 77.429t37.714 120.857zM901.143 439.428q0-90.857-44.857-168t-122-122-168-44.857q-68 0-130 26.571t-106.857 71.429-71.429 106.857-26.571 130q0 90.857 44.857 168t122 122 168 44.857 168-44.857 122-122 44.857-168zM1120 435.428q0 79.429-31.714 149.429t-84.286 117.429-122 74.857-144.286 27.429h-172q-100.571 0-184.857-46.286t-134.286-131.429-50-191.429q0-97.714 49.714-181.429t134.857-132.286 184.571-48.571h172q73.714 0 143.714 28.857t122.571 77.143 84.286 115.714 31.714 140.571zM1316.571 804.571v-731.429q0-29.714-21.714-51.429t-51.429-21.714h-1170.286q-29.714 0-51.429 21.714t-21.714 51.429v731.429q0 29.714 21.714 51.429t51.429 21.714h1170.286q29.714 0 51.429-21.714t21.714-51.429z" />
</font>
</defs>
</svg>
